<svg xmlns="http://www.w3.org/2000/svg" xmlns:xlink="http://www.w3.org/1999/xlink" viewBox="0 0 1362.93 801.7"><defs><style>.cls-1{fill:none;}.cls-2{fill:#e6d3a3;}.cls-3{fill:#ffd801;}.cls-4{fill:#8eaba6;}.cls-5{fill:#fbcf28;}.cls-6{fill:#fff;}.cls-7{fill:#60bfff;}.cls-8{fill:#f2efef;}.cls-9{fill:#abb5f5;}.cls-10{fill:#c2caff;}.cls-11{fill:#f2b579;}.cls-12{fill:#e2a668;}.cls-13{fill:#ededed;}.cls-14{fill:#979799;}.cls-15{fill:#e0e0e0;}.cls-16{fill:#da332d;}.cls-17{fill:#78c9ff;}.cls-18{clip-path:url(#clip-path);}.cls-19{fill:url(#linear-gradient);}.cls-20{fill:#e9f6ff;}.cls-21{fill:#1b5680;}.cls-22{clip-path:url(#clip-path-2);}.cls-23{fill:url(#linear-gradient-2);}.cls-24{fill:#ac2f8e;}.cls-25{fill:#f7bcaa;}.cls-26{fill:#eaa050;}.cls-27{fill:#41a839;}.cls-28{fill:#ffead6;}.cls-29{fill:#e0f3ff;}.cls-30{fill:#ffe8e0;}.cls-31{fill:#ffdd63;}.cls-32{fill:#00a39b;}.cls-33{fill:#faa098;}.cls-34{fill:#194294;}.cls-35{fill:#db8b29;}.cls-36{fill:#ffa12e;}.cls-37{fill:#163980;}.cls-38{fill:#d49682;}.cls-39{fill:#ebe8e8;}.cls-40{fill:#6f4c38;}.cls-41{fill:#fab699;}.cls-42{fill:#1b4bab;}.cls-43{clip-path:url(#clip-path-3);}.cls-44{fill:url(#linear-gradient-3);}.cls-45{clip-path:url(#clip-path-4);}.cls-46{fill:url(#linear-gradient-4);}.cls-47{clip-path:url(#clip-path-5);}.cls-48{fill:url(#linear-gradient-5);}.cls-49{fill:#3fceff;}.cls-50{fill:#ffea00;}.cls-51{fill:#0a3c5f;}.cls-52{clip-path:url(#clip-path-6);}.cls-53{fill:url(#linear-gradient-6);}.cls-54{fill:#d6fcfa;}.cls-55{clip-path:url(#clip-path-7);}.cls-56{fill:url(#linear-gradient-7);}.cls-57{fill:#7d9c97;}.cls-58{fill:#f5bca9;}.cls-59{fill:#e38e26;}.cls-60{fill:#593ea3;}.cls-61{clip-path:url(#clip-path-8);}.cls-62{fill:url(#linear-gradient-8);}.cls-63{fill:#f49726;}.cls-64{fill:#44a868;}.cls-65{clip-path:url(#clip-path-9);}.cls-66{fill:url(#linear-gradient-9);}</style><clipPath id="clip-path"><rect class="cls-1" x="548.83" y="698.6" width="179.7" height="64.6"/></clipPath><linearGradient id="linear-gradient" x1="638.68" y1="365.93" x2="638.68" y2="324.33" gradientTransform="translate(0 366)" gradientUnits="userSpaceOnUse"><stop offset="0" stop-color="#ebebeb"/><stop offset="1" stop-color="#d6d6d6"/></linearGradient><clipPath id="clip-path-2"><path class="cls-1" d="M452.83,282.9h-22.3v21a11.1,11.1,0,0,0,22.2,0v-21Z"/></clipPath><linearGradient id="linear-gradient-2" x1="441.78" y1="-78.09" x2="441.78" y2="-58.94" gradientTransform="translate(0 366)" gradientUnits="userSpaceOnUse"><stop offset="0" stop-color="#d49682"/><stop offset="1" stop-color="#f7bcaa"/></linearGradient><clipPath id="clip-path-3"><path class="cls-1" d="M106.63,783.2c35.8,0,52.1-25.3,52.1-45.8,0-22.4-5-36.8-18.7-44.2H73.13c-13.6,7.4-18.7,21.8-18.7,44.2.1,20.5,16.3,45.8,52.2,45.8"/></clipPath><linearGradient id="linear-gradient-3" x1="106.63" y1="333.3" x2="106.63" y2="388.39" gradientTransform="translate(0 366)" gradientUnits="userSpaceOnUse"><stop offset="0" stop-color="#bfad0b"/><stop offset="1" stop-color="#dcc008"/></linearGradient><clipPath id="clip-path-4"><path class="cls-1" d="M144.73,676.7c20.8-37.6,62.3-45.2,74.8-69.6,8-15.8,6.3-35.1-10.2-42-12.8-5.3-28.7-.7-41,15.7,7.2,9.6,4.1,21.5-2.3,29.7-4.8,6.1-11.2,9.6-18.5,12.6-6.7,2.8-11.7,5.1-10.9,11.9.5,3.1,2.5,4.2,4.7,4.8,3.1.9,6.3,1,7.2,4.5a7,7,0,0,1-3.1,6.8c-7.5,5.3-24.1,5.2-29.8,25.5l29.1.1Z"/></clipPath><linearGradient id="linear-gradient-4" x1="200.85" y1="218.23" x2="114.79" y2="318.1" gradientTransform="translate(0 366)" gradientUnits="userSpaceOnUse"><stop offset="0" stop-color="#fcbbcb"/><stop offset="1" stop-color="#de8c8c"/></linearGradient><clipPath id="clip-path-5"><path class="cls-1" d="M149.23,676.7H64a9.6,9.6,0,0,0,0,19.2h85.2a9.6,9.6,0,1,0,0-19.2"/></clipPath><linearGradient id="linear-gradient-5" x1="106.63" y1="325.25" x2="106.63" y2="310.65" gradientTransform="translate(0 366)" gradientUnits="userSpaceOnUse"><stop offset="0" stop-color="#cfbb0b"/><stop offset="1" stop-color="#fc0"/></linearGradient><clipPath id="clip-path-6"><path class="cls-1" d="M288.63,174.5c-1.8-45.4-22.8-80.2-27.8-86.2-11.7,7-24.5,15.5-24.1,32.1.3,12.6,10.5,16.7,8.9,51.2,5.8-1.2,34.8,0,43,2.9"/></clipPath><linearGradient id="linear-gradient-6" x1="251.7" y1="-247.03" x2="288.35" y2="-204.9" gradientTransform="translate(0 366)" gradientUnits="userSpaceOnUse"><stop offset="0" stop-color="#fff"/><stop offset="1" stop-color="#d6fcfa"/></linearGradient><clipPath id="clip-path-7"><path class="cls-1" d="M245.73,85a46.2,46.2,0,0,0-.3-5.8,12.9,12.9,0,0,1-2.8.8c-.1-.7-.7-3.3-1.3-3.9a24.13,24.13,0,0,1-8.2,1.9,82.91,82.91,0,0,1-.6,13.5c.7.4,2.9-.1,3.4.1s2.2,4.8,3.2,5.2a9.36,9.36,0,0,0,3.4-1.8c.7,1.1,2.1,3.5,3,5.2,3.1-2.9,9-8.6,9.7-9.9a39,39,0,0,0-1.4-4.2l-2.7-1.3c.5-1.5,1.3-5.4-1.1-6-2.8-.7-3.5,4.5-4.3,6.2"/></clipPath><linearGradient id="linear-gradient-7" x1="250.51" y1="-273.56" x2="237.58" y2="-281.99" gradientTransform="translate(0 366)" gradientUnits="userSpaceOnUse"><stop offset="0" stop-color="#f0b19c"/><stop offset="1" stop-color="#f5bca9"/></linearGradient><clipPath id="clip-path-8"><path class="cls-1" d="M841.13,574.4s5.6-.6,8.6-1.9a26.52,26.52,0,0,0-1.3-9.3c-1.3,1.7-4.6,6.1-7.6,6.7l.2,3.4Z"/></clipPath><linearGradient id="linear-gradient-8" x1="845.32" y1="202.07" x2="845.37" y2="206.41" gradientTransform="translate(0 366)" gradientUnits="userSpaceOnUse"><stop offset="0" stop-color="#f0a993"/><stop offset="1" stop-color="#f7bcaa"/></linearGradient><clipPath id="clip-path-9"><path class="cls-1" d="M1074.53,379.9h8.6V388a4.27,4.27,0,0,1-4.3,4.3h0a4.27,4.27,0,0,1-4.3-4.3v-8.1Z"/></clipPath><linearGradient id="linear-gradient-9" x1="1078.83" y1="15.84" x2="1078.83" y2="23.26" xlink:href="#linear-gradient-2"/></defs><title>banner-img</title><g id="Layer_2" data-name="Layer 2"><g id="Layer_1-2" data-name="Layer 1"><path class="cls-2" d="M225.63,441.3a109.89,109.89,0,0,1-12.1-12,176.37,176.37,0,0,1-12.2-15.4,154.09,154.09,0,0,1-9.3-15.2,90.63,90.63,0,0,1-6.2-14.4,166.39,166.39,0,0,1-5.2-20.8c-1.3-6.8-2.2-13.5-3-19.8-1.1-8.2-2.1-15.8-3.8-22.3s-3.8-11.8-7.3-15.6l-.3-.4,1.6-1.5.3.4c3.7,4.1,6.1,9.7,7.8,16.4s2.7,14.3,3.9,22.7h0c1.7,12.5,3.6,26.4,8.1,40.2a101.79,101.79,0,0,0,6.1,14.1,148,148,0,0,0,9.1,14.9,158.27,158.27,0,0,0,12,15.2A115.77,115.77,0,0,0,227,439.6l.4.3-1.4,1.7Zm2.3,1.2c3.2-2.2.2-11-1.7-20.1-1.6-8-1.5-16.1-5.1-16.4-1.1-.1-3.7,3.9-5.7,3s-3.2-5.6-1.9-11.4,6.6-11.6,2.5-15.6-8.6,3.3-10.7,2.1c-3.1-1.8-2.6-7-1.1-12.4,1.3-4.5,7.5-13.3,4.3-18.7s-14.6,12.4-19.3,6.4c-1.4-1.6.3-6.6,3.9-10.2,4.5-4.6,11-9.4,12.4-12.5s2.6-9.4-3.4-11.5c-5.2-1.8-9.5,13.4-14.3,8.8s5.4-14.1,1.6-25.5c-6.2-18.5-20.6-25.2-30-23-14.1,3.4-7.8,19.8-2.1,27.8,5.9,8.4,14,14.5,9.8,19.2s-12.4-11.4-16.5-9.3-5.4,10,3.6,16.7c3.7,2.8,14.2,9.6,8.7,14.4-3.6,2.9-7-4.4-11.7-6.9s-7.5.6-8.4,2.3-1.2,5.6,9,11.9,26.3,17.9,20.5,24.5c-2.6,3-12.8-6-15.3-2.3-2.9,4.2,4.3,10,9.6,12.1,4.5,1.8,15.5,2.8,15.5,6.9-.5,3.3-5.9,1.3-7.2,2.7s0,5.3,3.9,7.5c7.9,4.4,21.2,3.5,22,11.4-.2,2.5-3.5,1-4,3.5S223.43,445.2,227.93,442.5Z"/><path class="cls-3" d="M213.73,468.3c8.5-3.2,6.1-18.3,7.1-24.2.6-3.3,2.8-5.3,2.9-7.7.2-2.7-3.6-7.3-6.6-6.4-3.5,1.1-3.7,7.3-8.3,7.3s-6-9.1-6.2-15.8,4.2-15.2,2.8-22.4-4.5-10.2-7.3-10.1c-3.9.2-6.5,4.9-7.1,9.5-.6,4.8,1.4,14.1-7.1,14.6-2.7.1-6.2-3.9-7-10.1s4.7-11.8,3.7-20.4c-1.6-13.3-12.8-12.7-17-2-1,2.5-1.1,5.8-1.7,9-1.3,6.5-7.3,8.4-9.7,7.7-3.6-1.1-5.4-2-6.4-8.2s-.8-14.6-2.1-20.6-7.5-15.7-15.9-14.9c-4.8.5-16.6,10.2-8.3,34.2,5.8,15.7,19.9,10.9,22,16.6s-8.4,8.6-6.5,13.4,7.6,6.8,13.7,5.5,18.7-8.7,22-2.9c.9,1.5.2,2.9-1,3.9-2,1.7-5.2,2.4-5.3,5s2.8,8.5,8.2,8c5.9-.6,9.4-6,16.2-3.5,2.3.9,4.3,3,4.1,5.4-.5,3.3-4.2,2.3-5.6,4-1,1.1-.7,5.6,1.2,7.3s8.1,1.5,10.3,4.1,7.4,14.3,13,13.9A113.64,113.64,0,0,0,206,452a85.1,85.1,0,0,0-7.5-13.4,77.46,77.46,0,0,0-9-10.5,60.69,60.69,0,0,0-10.4-7.9c-2.6-1.6-5.4-3.1-8.1-4.5s-5.4-2.7-8.1-4c-16.8-8-31.8-15.2-35-38l-.1-.5,1.9-.3.1.5c1.5,10.9,5.9,18.1,11.9,23.5s13.8,9.1,22,13h0a181.57,181.57,0,0,1,16.3,8.5,68.44,68.44,0,0,1,10.7,8.1,65.81,65.81,0,0,1,9.3,10.8,89,89,0,0,1,7.7,13.7,140.46,140.46,0,0,1,6,17.3"/><path class="cls-4" d="M1272.53,379c7.7-2.8,12.7-3.2,22.8-1.1-4.7,1.9-16.7,5-22.8,1.1m13,78c-8.3.1-44.1,7.8-57.5,18.4C1240.43,477.1,1277.23,461.3,1285.53,457Zm-13.8-78.4c-2.8-7.7-5.6-11.8-13.7-18.2C1259.53,365.2,1264.83,376.4,1271.73,378.6Zm-2.7,6.5a57.52,57.52,0,0,0-17.2-20.7C1254.43,371.3,1258.93,382.5,1269,385.1Zm-150.6,312.8,6.5,3c4.2-9.6,8.5-19.4,12.9-29.3,28.2,1.6,80.5-8.2,107.3-27.1-28.5-4.8-87.6,17.9-106.6,25.5,3.5-7.8,7-15.7,10.6-23.7,24.3-3.2,83.6-13,106.7-31-21.9,10.1-67.6-5.1-105.1,27.3,3.3-7.3,6.6-14.6,10-21.9,25.8-3.6,90.1-22.5,101-29.8-23,5.5-83.6,17.4-99.8,27.2,2.3-5.1,4.7-10.2,7-15.4,15.5,1.1,77-6.7,96.5-29.3-10.3-1-76.6,17.2-95.7,27.5,2.2-4.8,4.4-9.5,6.6-14.3,19.5-3.3,83.1-34,93.8-37.8-20.2,3.8-73.8,18.2-92.4,34.6,2.3-4.9,4.5-9.8,6.8-14.7,18.7-4.1,83.7-40.3,90.1-45.5-25.1,12.6-64.1,16.2-88.5,41.9,3.4-7.4,6.8-14.8,10.3-22.2,25.1-4.1,71.6-30,82.1-42.6-22.1,5.5-67.2,32-81.5,41.4,2.9-6.2,5.8-12.5,8.7-18.7,11.9-5.1,63.8-30.4,74.8-35-12-2.2-51.7,14.6-74.2,33.7l10.2-21.9c27.9-11.9,55.4-19.1,66.9-30.5-8.4.3-53.2,20.3-66.5,29.6q9.75-21,19.4-41.6c13,1.1,42.7-7,50.7-11.1-7.9.1-36,.3-50.1,9.7,2.7-5.7,5.3-11.4,7.9-17.1,18,5.1,36.7-3.3,44.1-5.5-12.6-2.6-32.9,1.1-43.7,4.7l3-6.6c12.4-3.1,36-5.5,42.7-11.9-10.2-1-29,5.8-42.6,11.7,2.3-4.9,4.6-9.8,6.8-14.7,10.6-.3,19.6,2.5,37.8-10.7-4.4-.4-26.9,2.2-37.3,9.6l5.4-11.7c5.1,2.2,25.1-2.3,33.1-6.1-3.8-2-27.2,2.8-32.7,5.1,1.5-3.3,3.1-6.7,4.6-10,5.4.3,21.2,1.7,29.1-2.1-6.4-2.1-21.4-2.2-28.8,1.5,1-2.3,2.1-4.5,3.1-6.8,8.4,5.8,19.7,2.2,26.5-.2a58,58,0,0,0-26.4-.1l4.2-9.3c-1.6,3.1-3.2,6.3-4.7,9.4h0c-1.2,2.4-2.4,4.9-3.7,7.3-1.4-8.1-11.6-20.2-17.4-24,2.2,8.8,14.2,20.6,17.3,24.1v.1h0c-1.6,3.3-3.3,6.6-4.9,9.9-1.1-4.7-13-27.3-17.1-28.9,2.2,8.8,11.9,27.6,16.7,29.6-1.9,3.9-3.9,7.9-5.9,11.8-.8-12.8-13.3-32-16.5-35.2,1.5,22.5,9.4,27.7,16,36-2.4,4.8-4.7,9.6-7.1,14.4-4.2-14.3-10.9-33-18.2-40.1-.7,9.2,12.6,28.8,18.1,40.4l-3.1,6.4c-4.2-10.7-14.2-28.5-24.2-36.4,3,7,8.5,26.7,23.8,37.3-2.7,5.4-5.3,10.9-8,16.4-2.2-16.7-19.5-37.9-24.4-44,1.9,8.7,14.4,36.2,23.5,45.8-2.8,5.6-5.5,11.3-8.3,17-1.2-17.4-17.4-48.3-22.5-54.6,2,8.9,12.9,46.2,22.1,55.5-3.6,7.4-7.2,14.8-10.8,22.3-2-17.6-14.6-62-19.6-68.4-1.3,15.9,10.3,41.1,18.9,69.7-3.3,6.9-6.6,13.7-9.9,20.6-.4-29.2-12.4-68.4-21.5-76.1,3.4,11,16.1,63.4,20.4,78.4-2.9,6-5.8,12-8.6,18-2.4-18.8-10.5-67.3-20-86.9-2.9,15.8,6.4,66.4,18.9,89-3.1,6.6-6.3,13.1-9.4,19.7,2.3-33.7-18.5-64.8-24.6-91.2.2,8,13.1,77.5,21.9,96.9l-6.3,13.2c-1-25.6-22.7-73-32.3-90.2,3.8,10.4,20.1,75.8,30.1,95l-6.5,13.6c-5.5-22.9-32.3-82.1-39.5-89.2-4.8,28.7,26.6,79,38.2,92l-6.8,14.3c-4.3-20.3-32.3-71.7-42.5-92.2,1.3,12.9,26.9,72.5,40.9,95.6l-9.8,20.6c-.3-48.1-40-73.1-46.1-96,.9,28.8,30.4,79.7,43.7,101-3.7,7.9-7.5,15.7-11.1,23.4-6.6-20.3-26.6-78.9-48.2-97.5,2.6,32.4,28.1,78.5,47.3,99.4C1127.53,678.6,1122.93,688.3,1118.43,697.9Z"/><path class="cls-5" d="M1335.63,489.5l13.2-21c-32.8,23-49.3,26.9-69.2,37.5-5.8,3.1-11.5,8-16.7,11.3,5.1,1.9,11.1,4.7,14.5,6.2-3.9-.4-21.1-2.6-24.4-2.4h-.3c-6.1.5-13.5-.9-23.6,4.1s-17.6,33-35.2,55.8l2.8,8.1-9.4-.4h0a70.72,70.72,0,0,1-22.8,16.5c-17.4,7.8-35.8,9.8-44.4,18.3-2.2,2.2-5.7,7.2-9.1,13.8,10.4-2.4,22.7-.6,22.7-.6a83.09,83.09,0,0,0-27.4,11.2c-7,18.4-9.5,41.7,12.1,51.2,39.3-58.3,88.2-123.7,217.2-209.6m-209.4,214.1c40.2,22.3,83.6-12.7,88.5-17.1,0,0-5.5-12.4-7.1-16.9,0,0,5.1,9.3,9.2,13.6,13.9-7,35.4-26.4,40.6-33.6-7.2-4.1-28.5-39.6-32.8-43.8,0,0,32.2,20.7,42.7,25.8,21.8-12.7,40.8-42.6,47.6-50.3-5.9-5.7-35.5-18.1-35.5-18.1,6.2.7,27.3,10.2,37.7,15.7l5.9-5.9c-9.4-4.3-24.3-9.2-27.1-9.2,6.4,0,22.1,3.6,30.7,5.6,8.1-7.9,17.6-17.6,23.1-26.6-4.7-.3-36.6-8.4-41-12.1,0,0,33.7,9.6,39.8,8.2,8-6.8,14.4-28.6,14.4-28.6-1.2-.2-29.2-3.7-40.1-3.6,0,0,25.6-.9,39.5-.3a19.21,19.21,0,0,0-.7-9.5c-4.5-2.6-22.4-7.1-26.2-7.5-129,94.3-177.6,156.9-212.9,211.8Z"/><path class="cls-6" d="M235.13,198h807a26.18,26.18,0,0,1,26.1,26.1V672.6a26.18,26.18,0,0,1-26.1,26.1h-807A26.18,26.18,0,0,1,209,672.6V224.1a26.25,26.25,0,0,1,26.1-26.1"/><path class="cls-7" d="M236.63,216.6h804.2a8.92,8.92,0,0,1,8.9,8.9V671.2a8.92,8.92,0,0,1-8.9,8.9H236.63a8.92,8.92,0,0,1-8.9-8.9V225.5a8.92,8.92,0,0,1,8.9-8.9"/><path class="cls-8" d="M932.13,617.9a95.69,95.69,0,0,0,0,58.7H1242c-5.2-18-5.1-37.6,0-58.7Z"/><path class="cls-9" d="M926.63,605c-11.9,28.1-11.8,56.2,0,84.3h317.9a3.59,3.59,0,0,0,3.6-3.6v-5.6a3.59,3.59,0,0,0-3.6-3.6h-238.8c-6.8-19.7-6.9-39,0-58.7h238.8a3.59,3.59,0,0,0,3.6-3.6v-5.6a3.59,3.59,0,0,0-3.6-3.6Z"/><path class="cls-10" d="M1175.13,605H926.63c-11.9,28.1-11.8,56.2,0,84.3h248.5a3.59,3.59,0,0,0,3.6-3.6v-5.6a3.59,3.59,0,0,0-3.6-3.6H936.33c-6.8-19.7-6.9-39,0-58.7h238.8a3.59,3.59,0,0,0,3.6-3.6v-5.6a3.65,3.65,0,0,0-3.6-3.6"/><path class="cls-11" d="M868.73,788V775H1137c23.1,0,42-16.4,42-36.4s-18.9-36.4-42-36.4H868.73V689.3h338.7a49.3,49.3,0,0,1,0,98.6H868.73Z"/><path class="cls-12" d="M1142.63,788H868.73V775H1137c23.1,0,42-16.4,42-36.4s-18.9-36.4-42-36.4H868.73V689.3h273.9a49.35,49.35,0,0,1,0,98.7"/><path class="cls-6" d="M880.63,702.3V775h261.9a36.4,36.4,0,1,0,0-72.8H880.63Z"/><path class="cls-13" d="M880.63,702.3v8.3h285a36.33,36.33,0,0,0-23.2-8.3Z"/><path class="cls-12" d="M1201.63,689.4h-18.7a62,62,0,0,1,0,98.6h18.7c13.2-11.4,21.8-29.2,21.8-49.3s-8.5-37.9-21.8-49.3"/><path class="cls-14" d="M1158.23,771.4a36.34,36.34,0,0,0,0-65.6c4.3,10.1,8,21.1,8,32.8s-3.7,22.8-8,32.8"/><path class="cls-6" d="M1172.53,617.9H932.13a95.69,95.69,0,0,0,0,58.7h240.4c-5.2-18.1-5.1-37.7,0-58.7"/><rect class="cls-15" x="941.63" y="637.8" width="86.7" height="4.9"/><polygon class="cls-16" points="952.63 637.8 977.73 637.8 977.73 671.1 965.23 660.8 952.63 671.1 952.63 637.8"/><rect class="cls-17" x="620.23" y="267.2" width="381.5" height="137.7"/><rect class="cls-17" x="576.73" y="439.8" width="425" height="59.7"/><rect class="cls-17" x="576.73" y="537.8" width="425" height="59.7"/><path class="cls-6" d="M489.63,780.7h298.2v-.5c0-13.6-8.7-24.6-19.3-24.6H508.93c-10.7,0-19.3,11.1-19.3,24.6v.5Z"/><g class="cls-18"><rect class="cls-19" x="548.83" y="698.6" width="179.7" height="64.6"/></g><rect class="cls-6" x="347.33" y="122.9" width="412.4" height="557.1"/><rect class="cls-20" x="379.43" y="168.9" width="124.6" height="181.6"/><path class="cls-21" d="M457.63,350.5H504V329.6c-16.4-16.6-32.4-25.4-43-29.8-2.7-1.1-5.4-2.1-8.2-3,1.5,9.1,3.2,29,4.8,53.7"/><g class="cls-22"><rect class="cls-23" x="430.63" y="282.9" width="22.3" height="32.2"/></g><path class="cls-24" d="M469.33,261.2c3.3-4.6,6.7-24.4-1.9-30.3s-8.7,8.3-9.3,9.4-2.5,4-1.8,7.2,2.2,11.6,3.1,13.2,3.3,8.7,3.3,8.7Z"/><path class="cls-25" d="M462.43,277.9c13.9-2.1,11.7-15.3,8.6-16.5s-5.2,2.7-5.8,4.5h0a41.16,41.16,0,0,1-2.8,12Z"/><path class="cls-25" d="M441.73,293.4c1.6,0,19.6-3.9,22.7-22.4s-.2-35.3-2-37.8-20.8-2.2-20.8-2.2-19-.3-20.8,2.2-5.1,19.3-2,37.8c3.3,18.6,21.4,22.4,22.9,22.4"/><path class="cls-24" d="M418.63,268.8c-6.1-6.3-15.5-45.8-7-54.2,3.6-3.9,9.4-1.4,10.9-.4.1-8.9,15.6-23.9,27.9-11,3.3-6.3,14.3-8.6,20.7-3.1,5.1,4.4,10.1,19.2,3.5,29.6-8.6,13.7-39.5,1.3-47.5,7-2.6,2.1-10.6,11.7-8.5,32.1"/><path class="cls-25" d="M421,277.9c-13.9-2.1-11.7-15.3-8.6-16.5,3.9-1.5,4.8,3.6,5.8,4.5a41.16,41.16,0,0,0,2.8,12Z"/><path class="cls-21" d="M425.83,350.5h-46.4V329.6c16.4-16.6,32.4-25.4,43-29.8,2.7-1.1,5.4-2.1,8.2-3-1.5,9.1-3.2,29-4.8,53.7"/><path class="cls-26" d="M425.83,350.5c1.6-24.7,3.3-44.6,4.8-53.7V304a11.1,11.1,0,1,0,22.2,0v-7.2c1.4,9.1,3.2,29,4.8,53.7Z"/><path class="cls-27" d="M704.23,204.6a1,1,0,0,0,1,1h21.4a1,1,0,0,0,1-1v-4.3a1,1,0,0,0-1-1H711v-9.2h13a1,1,0,0,0,1-1v-4.4a1.08,1.08,0,0,0-1-1H711v-8.6h15.6a1,1,0,0,0,1-1v-4.3a1,1,0,0,0-1-1h-21.4a1,1,0,0,0-1,1v34.8Zm-48.3-.2a1,1,0,0,0,1,1.2h4.7a.88.88,0,0,0,.9-.8l3-19.9h.2l9.3,20.7a1,1,0,0,0,.9.6h.9a.91.91,0,0,0,.9-.6l9.2-20.7h.2l3.1,19.9a1.08,1.08,0,0,0,1,.8H696a.87.87,0,0,0,.9-1.2l-6.2-35.3a1,1,0,0,0-.9-.8H689a.94.94,0,0,0-.9.5l-11.6,24.8h-.2l-11.6-24.8a1.05,1.05,0,0,0-.9-.5H663a.82.82,0,0,0-.9.8ZM620,191.7a14.65,14.65,0,0,0,29.3,0V169.8a1.08,1.08,0,0,0-1-1h-5a1,1,0,0,0-1,1v21.5a7.57,7.57,0,0,1-7.7,7.9c-4.6,0-7.6-3.5-7.6-8V169.7a1,1,0,0,0-1-1h-5a1.08,1.08,0,0,0-1,1ZM590.13,202a17,17,0,0,0,11.6,4.1c7.4,0,12.1-5,12.1-10.4,0-6.8-5.9-9.8-11-11.9-4.3-1.7-6.2-3.4-6.2-5.9,0-1.7,1.6-3.7,4.6-3.7s6.9,2.6,7.3,2.9a1.37,1.37,0,0,0,1.8-.6l2-3a1.25,1.25,0,0,0-.3-1.7,18.43,18.43,0,0,0-10.5-3.5c-8.4,0-11.8,5.4-11.8,10.1,0,6.2,4.9,9.4,9.9,11.4,4.4,1.8,6.7,3.6,6.7,6.3,0,2.3-2,4-4.8,4-3.4,0-7.7-3.1-7.9-3.3a1.17,1.17,0,0,0-1.8.4l-1.9,3.3C589.43,201.3,589.73,201.5,590.13,202Zm-29,2.6a1,1,0,0,0,1,1h21.4a1,1,0,0,0,1-1v-4.3a1,1,0,0,0-1-1H568v-9.2h13a1,1,0,0,0,1-1v-4.4a1.08,1.08,0,0,0-1-1H568v-8.6h15.6a1,1,0,0,0,1-1v-4.3a1,1,0,0,0-1-1h-21.4a1,1,0,0,0-1,1l-.1,34.8Zm-28.1-19V175.1h8.6a5.21,5.21,0,0,1,5.2,5.1,5.4,5.4,0,0,1-5.2,5.4Zm-6.9,19a1,1,0,0,0,1,1h4.8a1.08,1.08,0,0,0,1-1V191.2h5.8l7,13.9a1,1,0,0,0,.8.5H552a1,1,0,0,0,.9-1.5l-7.2-13.3c4.6-1.8,7.8-5.8,7.8-10.6A11.33,11.33,0,0,0,542,168.9H527a1,1,0,0,0-1,1v34.7Z"/><rect class="cls-20" x="526.13" y="219.5" width="201.4" height="14.7"/><rect class="cls-20" x="526.13" y="250.9" width="105.5" height="14.7"/><rect class="cls-20" x="526.13" y="284.2" width="140" height="14.7"/><rect class="cls-20" x="526.13" y="317.4" width="75.3" height="14.7"/><rect class="cls-28" x="379.43" y="377.8" width="124.6" height="302.2"/><rect class="cls-29" x="526.13" y="377.8" width="201.4" height="13.3"/><rect class="cls-29" x="526.13" y="404.9" width="201.4" height="13.3"/><rect class="cls-29" x="526.13" y="432" width="94.8" height="13.3"/><rect class="cls-30" x="592.93" y="459.1" width="67.9" height="13.3"/><rect class="cls-30" x="526.13" y="486.2" width="201.4" height="13.3"/><rect class="cls-30" x="526.13" y="513.3" width="201.4" height="13.3"/><rect class="cls-29" x="526.13" y="567.5" width="201.4" height="13.3"/><rect class="cls-29" x="526.13" y="594.6" width="201.4" height="13.3"/><rect class="cls-31" x="526.13" y="621.7" width="100.7" height="13.3"/><rect class="cls-31" x="526.13" y="648.8" width="100.7" height="13.3"/><rect class="cls-29" x="592.93" y="540.4" width="67.9" height="13.3"/><path class="cls-32" d="M474.33,724.8h-63.7v36h63.7Zm0-46.9h-63.7v36h63.7Zm0-47h-63.7v36h63.7Zm0-46.9h-63.7v36h63.7Zm0-46.9h-63.7v36h63.7Zm0-46.9h-63.7v36h63.7Zm-63.7-10.9h63.7v-36h-63.7Zm0-46.9h63.7V411.7h10.9v390h-10.9v-30h-63.7v30h-10.9v-390h10.9Z"/><path class="cls-33" d="M412.53,448.8c-1.3-8.2.1-28.5,3.4-37.2-1.9-2.8.9-14.6,6-16,2.7-.6,1.7,9.8,1.5,10.6,1.5-.2,2.6-3.8,2.9-3.9s1.1,3-1.9,6.7c-1.1,1.4-3.9,3-4.2,3.5s-1.6,17.5,2.9,31.1a72.84,72.84,0,0,0-10.6,5.2"/><path class="cls-33" d="M449.83,447.6a10.9,10.9,0,0,1,1.6,6c0,4.1-1.8,7.5-4.2,8-.2.9-.7,3.1-.7,3.1l-6.2-1.1s-2.3-4.1-.9-5,6.2-3.2,6.8-2.9.9,3.6,1,4.9a4.9,4.9,0,0,0,1.1-2c.2-.8-.7-7.1-.5-8.2a24.23,24.23,0,0,0,2-2.8"/><path class="cls-6" d="M465.53,532c-.3-5-3.3-37.4-4.6-48.3,4.7,11.5,14.6,22.8,22,21,5.7-5.1-7.9-31.6-14.8-40a64.4,64.4,0,0,0-34.5-1.8c-1.7-3.1-8.6-17.1-9.5-19.6-2,.3-12,5.2-13.7,7.1.5,7.3,9.6,25.7,12.3,29.6-1.4,9.5-4.3,44-5.2,53.9,7.3-2,37.6-3.3,48-1.9"/><path class="cls-33" d="M427.33,614.1l.2,5.7a7.55,7.55,0,0,0,6.1,0v-5.3Z"/><path class="cls-34" d="M427.43,619c-1.3.8-8.8,5.7-9.8,7.6V629c1.7.3,14.4-.8,17.3-1.4v-7.7l-1.4-1.3v1.1a7.57,7.57,0,0,1-6.1,0Z"/><path class="cls-33" d="M460.13,653.4l.3,6.6s-3.5,2-6.1,0l-.7-6.1,6.5-.5Z"/><path class="cls-34" d="M460.43,659.1l-.2-.1v1a5.2,5.2,0,0,0-.5.3,6,6,0,0,1,.7-.3Zm-6.3.1-.7.5-1.3,9.1a5.67,5.67,0,0,0,5.2,1.2c3.4-.7,12.7-3.1,12.7-3.1l-.7-3.1-8.8-4.7v.8a6,6,0,0,0-.7.3c-1.1.5-3.6,1.3-5.6-.3Z"/><path class="cls-33" d="M480.23,486.1c-7.3.6-12.4,3.9-14.4,6.9,5,7.5,11.7,13,17,11.8,2.9-2.5,1-10.4-2.6-18.7"/><path class="cls-35" d="M417.93,533.9c-.8,6.9-2.4,25.8-2.2,36.5.6,8,6.4,28.4,9.4,45.8l8.5-.1c.4-8.2,8.1-24.1,2.9-40.7a11.31,11.31,0,0,0,2.1-3.6,169,169,0,0,1-5.5-39.6,93.52,93.52,0,0,0-15.2,1.7"/><path class="cls-36" d="M438.63,571.7c3.5,13,7.6,21.5,9.4,24.7-11.6,15.5-3.2,43.2,2.7,58.9l10.4-.1c-.5-24.3,9.4-67.9,4.4-123.1-6.5-.9-20.7-.7-32.3,0a169.61,169.61,0,0,0,5.4,39.6"/><path class="cls-34" d="M436.23,465.2c2.7-.3,10.8-2,12.2-6.6.2-.8-.7-7.1-.5-8.2s5-3.6,2.6-13.9c-3.5,5.3-10.4,1.4-15.6,6.4-2.8,2.8-5.2,14.5,1.3,22.3"/><path class="cls-37" d="M259.13,577.3c6.6,9.6,14.6,27.8,7.8,39.2-6.4-2.2-17.2-14.4-23.2-25.8a37.88,37.88,0,0,1-3.9-10.1c-1.6-7.4.9-12.3,4.6-13.4,4.8-1.4,9.1,1.9,14.7,10.1"/><path class="cls-38" d="M266.93,616.5c8-.8,25.7-5.3,32.6-7.9a33.39,33.39,0,0,0,11.4,2.2c2.6-.1,9.5-6.6,10.3-7.9-4.2-.3-24.3,2.7-24.3,2.7l-1,1c-7.6-1.2-25.6-.9-31.2-.6Z"/><path class="cls-37" d="M266.93,616.5c6.6-.7,19.9-3.9,28.2-6.4v-3.7c-8-1-24.9-.8-30.3-.5Z"/><polygon class="cls-37" points="299.63 604.2 301.73 608 342.73 600.8 354.33 556.9 352.03 556.4 341.43 599.7 299.63 604.2"/><path class="cls-39" d="M221.23,646.9c-2.4,21.1,4.7,72-11.1,130l8.9-.2c11.9-22.4,32.5-62.4,45.9-130.7Z"/><path class="cls-6" d="M221.33,644.2c4.5,19.5,30.2,56.7,40.1,132.7l8-.2c3.9-21.6,3.1-103.7-2.3-131.8Z"/><path class="cls-40" d="M248.13,554.1c1.2,0,.2-4.6,1.3-5.8,4.1-4.8,9.2-5.2,11-8.1,2.1-3.3.7-7.4-2.8-8.4-2.4-.7-5.3,1.7-6.9,1.4s-5.1-2.9-8.8-1.5-1.6,7.3-2.6,9-3.6,3.3-3.9,5.5,3.1,9.4,7.4,10.3l.3-1.3c-1.3-1-2-2.6-1.8-5.1.2-3.7,3.7-4.8,5.2-1.5.7,2.2.8,5.3,1.6,5.5"/><path class="cls-34" d="M238.83,563.9c1.4.5,12.3,3.9,13.9,5.1,2.9,5,15.2,21.8,14.9,77.5-8,4.8-43.1,4.6-46.1.8-1.5-24.6,0-69.1,17.3-83.4"/><path class="cls-25" d="M253.83,564.1c4.3.2,5.8-8.6,5.5-9.5a8.68,8.68,0,0,0,3.1-2c-.9-.5-2.8-4.5-3.4-5.6,0,0,1.2-.9,1.2-1.6a34.47,34.47,0,0,0-.8-4.2c-2.3,2-6.6,2.9-10.1,7.1-1,1.2-.1,5.8-1.3,5.8-.8-.2-.8-3.3-1.8-5.4-1.5-3.4-5-2.2-5.2,1.5a5.62,5.62,0,0,0,1.8,5.1l-.3,1.3c-.3-.1-.5-.2-.8-.3-.3,1.3-1.8,6.1-2.4,7.9,2.7.9,8.2,2.6,11.2,3.9a14.72,14.72,0,0,1,1.6-4.3,6.09,6.09,0,0,0,1.7.3"/><path class="cls-41" d="M288.83,591.8a64,64,0,0,1,10-1.4c1.3-1.5,3.1-1.9,6.9-1.7s14.6,3.3,15.1,3.4c1.2.8,5.9,8.4,5.7,9.2s-7.2-5.8-8.5-6.1c-1.6.8-4.9,3.5-9.9,3.9s-10.2-3.6-10.2-3.6a76,76,0,0,0-7.5,3.8Z"/><path class="cls-34" d="M261.83,599.1c-2.1-7.1-11.5-27.6-21.2-28.5a6.26,6.26,0,0,0-2.7.3c-15.3,4.6,7.4,43.9,19.6,48a33.36,33.36,0,0,0,7-3.5,14,14,0,0,0,1.6-1c.1-.1.2-.1.3-.2a22.63,22.63,0,0,0,2-1.3c3.5-2.2,7.6-4.8,11.5-7.3,5.5-3.4,10.9-6.8,15-8.8l-1.7-5.8a212.3,212.3,0,0,0-25,5.9,47.2,47.2,0,0,0-4.5,1.5c-.7.3-1.4.5-1.9.7"/><path class="cls-42" d="M280.13,787.1c0,.6.6,2.8-10.3,2.5a13.68,13.68,0,0,0-3.8-1.3c-.3.1-.6,1.2-.6,1.2-1.3.2-5.2.5-5.5-.7-.6-2.5.5-6.1,2-7.4h.4c0,.5.7,2.1,2.1,2a4.64,4.64,0,0,0,3.4-2.4c.8.3,4.7,4.5,7.6,4.9,3.1.5,4.3-.4,4.7,1.2"/><path class="cls-33" d="M267.93,781l.3-4.1-5.8.1v4.8c.2.6.9,1.8,2.1,1.7a5.11,5.11,0,0,0,3.1-1.9Z"/><path class="cls-42" d="M229.63,787.1c0,.6.6,2.8-10.3,2.5a13.68,13.68,0,0,0-3.8-1.3c-.3.1-.6,1.2-.6,1.2-1.3.2-5.2.5-5.5-.7-.6-2.5.5-6.1,2-7.4h.4c0,.5.7,2.1,2.1,2a4.64,4.64,0,0,0,3.4-2.4c.8.3,4.7,4.5,7.6,4.9s4.3-.4,4.7,1.2"/><path class="cls-33" d="M217.43,781l.3-4.1-5.8.1v4.8c.2.6.9,1.8,2.1,1.7a5.11,5.11,0,0,0,3.1-1.9Z"/><g class="cls-43"><rect class="cls-44" x="54.53" y="693.3" width="104.2" height="90"/></g><g class="cls-45"><rect class="cls-46" x="115.53" y="559.8" width="112" height="116.9"/></g><path class="cls-6" d="M200.93,583.5c-10.4,4.5-24.1,18.7-36.9,35.4-15.1,19.7-29,42.9-34.5,57.6l1.3.5c5.5-14.5,19.3-37.6,34.3-57.2,12.7-16.5,26.2-30.5,36.3-35Z"/><g class="cls-47"><rect class="cls-48" x="54.43" y="676.7" width="104.4" height="19.2"/></g><path class="cls-49" d="M94.63,676.7c-2-7.1-6.4-16-6.2-24.6.3-10.9,7.6-11,8.2-15.4.4-6.4-6.5-21.6,5-30.5,5.8-3.9,10.7.9,14.3-.3,4.4-1.5,5.2-22,18.9-30.3,10.9-6.6,25.7-3.7,32.3,3.8,8.7,9.8,5.5,22.5-1.2,31.1-4.8,6.1-11.2,9.6-18.5,12.6-6.7,2.8-11.7,5.1-10.9,11.9.5,3.1,2.5,4.2,4.7,4.8,3.1.9,6.3,1,7.2,4.5a7,7,0,0,1-3.1,6.8c-7.5,5.3-24.1,5.2-29.8,25.5H94.63Z"/><path class="cls-50" d="M94.93,622h0a19.69,19.69,0,0,1,.4-5.4c.6-7.6,1.3-18.4-6.6-19.8-6.8-1.1-4.7,6.8-9.3,6.3-2.3-.1-3.1-3.9-3.7-9.3-1.1-10,.3-22.3-2.7-29.1-3.6-9.6-20-11.8-19,.2.5,5.6,4.3,11.7-1.1,13.1-6.8,1.5-13.7-9-24.7-13.9s-19-5-24.4,2.1-6.9,18.4,7.2,27c10.3,6.1,23.2,9,20.4,16.3-.6,1.3-3.1,1.5-6.2,1.5-11.4,0-19.3,1.8-20.8,10.7-.7,3.8.6,9.3,9.8,14.9,11.3,6.9,43.6,1.2,43.8,12.7-.1,7.3-13.8,4.5-16.7,10.4-1.4,2.6-.2,6.8,3.9,10,3.3,2.5,8.2,4.6,12.5,7h36.8c-2-7.1-6.4-16-6.2-24.6.3-10.9,7.6-11,8.2-15.4.3-3.3-1.4-8.9-1.6-14.7Z"/><path class="cls-6" d="M153.23,588c-7.2,2.7-25.6,17.7-38.2,39.7-8,14-13.7,30.8-12.7,49l1.4-.1c-1-18,4.6-34.5,12.5-48.3,12.4-21.7,30.5-36.5,37.5-39.1Z"/><path class="cls-6" d="M19.63,574.7c9.3,2.1,26.3,11.1,42.2,34.3,10.7,15.5,20.9,37.4,28,67.9l1.3-.3c-7.1-30.6-17.4-52.7-28.2-68.3-16.2-23.5-33.6-32.7-43-34.9Z"/><path class="cls-33" d="M215.13,269.6l-.4-5.2a16.39,16.39,0,0,1-7.6,1.5l.3,5.4c2.1,1.1,6.7-.8,7.7-1.7"/><path class="cls-51" d="M193.93,278.5l-.3-.1a9.68,9.68,0,0,0-.3,1.1c9.7,1.4,15.6-2.1,17.1-2.1l.1,1.1,6.7-1.1-.3-2.2-.4-.2c0-1.2-.5-4.2-1.5-5.4-1,1-5.1,2.6-7.2,1.4a4,4,0,0,0-1-1.8l-.5.4a2,2,0,0,0-1.4.6c-1.4,1.1-3.2,3-5.3,4.1-2.4,1.3-5,1.8-5.7,3v1.2"/><g class="cls-52"><rect class="cls-53" x="236.23" y="88.2" width="52.4" height="86.2"/></g><path class="cls-54" d="M271,132a56.55,56.55,0,0,1,6.5-1.5c-3.5-20.8-11.8-27.7-18.1-27.1,5.7,8.8,9.4,19.2,11.6,28.6"/><g class="cls-55"><rect class="cls-56" x="232.63" y="76.1" width="22.6" height="24.1"/></g><path class="cls-38" d="M242.53,95.1a27.45,27.45,0,0,1,1.5,2.4c1.9-1.8,4.2-6.8,4.4-8.4-.5,1.5-3.3,4.2-5.9,6"/><path class="cls-51" d="M229.83,169.3a1.5,1.5,0,0,1,.2,3l-46.5,5.1a1.33,1.33,0,0,1-1.5-1h0l-12.4-38.3a1.49,1.49,0,0,1,2.8-1l14,36.3Z"/><path class="cls-57" d="M194.53,182.5l-22.8,85,10.2,1.5s27-30.4,36.5-64c4.9.4,42.9,4.4,43.5,2.4s-2.8-11.7-9.8-14.7-27.4-7.4-27.4-7.4-9.7-.1-9.8,2-20.4-4.8-20.4-4.8"/><path class="cls-4" d="M288.63,174.5c0,4.6-1.2,32.8-25.9,33.6s-40.4-10.3-49.3-10.6c1.4,24.4-1,41.2,1.8,66.7a17.64,17.64,0,0,1-11.1,1.5c-2.4-13.8-22-61.5-22.5-87.2,7.8-2.6,54.3-7.3,61-6.9a234.62,234.62,0,0,1,46,2.9"/><path class="cls-33" d="M178.23,272.6l1.4-3.9-7.8-1.1-1.4,3.5c1.5,1.8,6.5,1.9,7.8,1.5"/><path class="cls-51" d="M155.23,272.2l-.2-.2c-.2.2-.7.9-.7.9,8.3,5.2,15.1,4.4,16.5,5l-.3,1,6.6,1.7.6-2.1-.3-.3c.5-1.1,1.3-4,.8-5.6-1.3.5-5.7.3-7.1-1.7a3.29,3.29,0,0,0-.2-2l-.6.2a1.9,1.9,0,0,0-1.5-.1c-1.7.4-4.1,1.4-6.5,1.6-2.7.2-5.3-.3-6.4.4a3.75,3.75,0,0,0-.7,1.2"/><path class="cls-34" d="M246.63,88c7,8.3-4.2,18.6,2.7,29.1,2.8,5.2,9.3,8,10.8,10.8s12.2,10.9,16,12.4c7,2.8,12-14.8,9.4-23.4-1.7-5.4-8-5.2-9.7-12.4s.1-17.5-3.8-23.9c-2.4-3.9-8.5-6.7-13-9.9s-9.2-11.3-19.8-8.7c-5.8,1.4-12,6.9-9.7,15.3,1.8,6.5,13.7,6.7,17.1,10.7"/><path class="cls-58" d="M258.73,103.4c6.7-1.2,15.8,6,19.1,29.2,2,10.3.6,27,.4,29.1-4.9,2.5-33.2,5-52.7.5-.5,1.1-5.2,5.1-10.6,5s-9.3-4.9-9.3-4.9c-.9.7-7.6,9.3-8.3,9.1-1.2-.4,5.6-14,12.3-15.8,3.4-.9,8.8-.7,17.8,2.1,5.5-2.6,19.4-7.3,35.7-9-6.6-9.7-16.3-36.5-4.4-45.3"/><path class="cls-6" d="M257.73,138.2a53.07,53.07,0,0,1,19.8-7.7c-3.6-21.5-12.3-28.2-18.8-27-8.8,6.4-5.8,22.7-1,34.7"/><path class="cls-59" d="M841,573.4c-31.1,9.4-13.4,62.4-26,101.5,2.9,3.2,9.8,4.1,13.4,3.7l7.7-22.7V636.4c0-1.4-.9-16.9-.4-19.3s.9-22,.9-22l4.5-21.1Z"/><path class="cls-25" d="M840.93,769.5c2-19.5,6-35.2,3.6-57.9,12.6-26.6,19.3-51.2.3-66.9-7.1,0-13.7-.8-15.3-1.9-3.6,14.6-7.1,43.1-7.6,52.4.5,10.9,8.4,36.1,13.1,74.4l5.9-.1Z"/><path class="cls-25" d="M864.93,641.2c-3.5,2.5-12.1,3.4-20,3.4l-6.6,53.4c12,25.9,25.8,41.7,35.5,70.3l5.8-1c-1.1-13.8-9-49.9-14.4-62,9.6-16.4,21.7-45-.3-64.1"/><path class="cls-60" d="M844.23,745.7a153.64,153.64,0,0,0,.3-34.1l-6.3-13.5,6.6-53.4c-3.1,0-6.1-.2-8.7-.4-3.3-.3-5.7-.9-6.7-1.5-2.3,9.2-4.5,23.9-6,35.8-.9,7-1.4,13.1-1.6,16.6,0,9.6,4.6,49.3,3.2,55.9a37.44,37.44,0,0,0,7-1.1,82,82,0,0,0,12.2-4.3"/><path class="cls-60" d="M846.13,714.7c1.9,5.2,12.1,31.4,12.3,36.9a43.43,43.43,0,0,0,6.1-1.1,49.28,49.28,0,0,0,11.6-4.5c-3.1-15.3-7.6-32.9-11-40.6,4.1-7,8.7-16.2,10.9-25.9l.1-.1c-7.7,3.8-20.9,4.9-29.9,4.4a154.93,154.93,0,0,0,4.1-39.4c-1.8.1-3.6.1-5.4.1l-6.6,53.4,6.3,13.5Z"/><path class="cls-60" d="M880.93,786.1a2,2,0,0,0,1.5-.8c-.2-1.5-.1-7.4-.7-11.2-.3-1.7-1.1-2.1-1.4-3.2A7.88,7.88,0,0,0,876,775c-2.1,4.2-2.4,9.9-5.6,10.8a2.23,2.23,0,0,1-2.5-1c-.7.9-5.1,2-4.6,3.3.2.5,4,2.3,9.4.2,2.7-1.2,1.9-6.1,7-10.2Z"/><path class="cls-25" d="M867.83,784.7c1.1-1,4.6-10.2,6.4-12.1l-.7-5.5,5.8-1.4.6,5.2a8.44,8.44,0,0,0-4,3.9c-2.1,4.2-2.4,9.9-5.6,10.8a2.19,2.19,0,0,1-2.4-.8.1.1,0,0,1-.1-.1"/><path class="cls-60" d="M838.13,788.9c.2,0,1.2.1,1.6-.4.1-1.5,1.5-7.3,1.8-11.1.1-1.8-.6-2.3-.7-3.5a8.17,8.17,0,0,0-5.1,3c-2.9,3.6-4.5,9.1-7.8,9.3a2.1,2.1,0,0,1-2.2-1.5c-.9.8-5.4.9-5.2,2.2.1.5,3.4,3.1,9.1,2.2,2.9-.6,3.2-5.6,9.1-8.4Z"/><path class="cls-25" d="M825.73,784.7c1.3-.8,6.7-9,8.9-10.4l.5-5.5,5.9-.1-.5,5.2a7.75,7.75,0,0,0-4.7,3c-2.9,3.6-4.5,9.1-7.8,9.3a2.34,2.34,0,0,1-2.2-1.3c-.1-.1-.1-.1-.1-.2"/><path class="cls-6" d="M829.53,642.7c3.5,2.4,28.8,3.3,35.4-1.5-.9-9.5.1-37.2-.5-46.2l-2.5-11.8-7.6-9.9-5.8-2.4c-14.7,5-22.3,12.9-22.9,25.2-.7,13.7,3.1,23.1,3.9,46.6"/><g class="cls-61"><rect class="cls-62" x="840.83" y="563.3" width="9" height="11.1"/></g><path class="cls-25" d="M840.83,570c3-.6,5.3-3.1,6.6-4.8,2.6-5.7,1.9-16.1-5.2-18.3a11.26,11.26,0,0,0-9.9,1.8c-.6.6-3.1,3.9-1.6,10.8s4.8,11.3,9.7,10.6c.2,0,.3-.1.4-.1"/><path class="cls-63" d="M847.43,573.3c-3.6,9.9-8.1,23.3-6.1,44.5,1.7,18.5,10.3,44,4.9,66.1,10.7.6,27.3-1.1,33.6-6.8-.5-14.4-6.4-92.6-19-103.2-4.9-3.3-9.3-3.6-13.4-.6"/><polygon class="cls-64" points="828.23 624.1 829.03 623.5 827.13 596.4 812.23 593.6 811.43 594.1 813.63 621.8 828.23 624.1"/><polygon class="cls-64" points="811.43 594.1 826.23 596.9 828.23 624.1 813.63 621.8 811.43 594.1"/><path class="cls-25" d="M810.53,607.8c.7-.3,3.9-2.9,4.2-2.9s1.1,4.9.9,5.8-3,3.4-4.7,3.1c-.4-.2-.4-6-.4-6"/><path class="cls-60" d="M849.63,569.2c1.4,1.8,2.9,3.6,2.9,5.5v.7a16.7,16.7,0,0,1,1.9,8.1h0l7.6-.2h0c1.4-1.2,2.7-2.6,4.1-4-6.7-8.2-7.3-23.9-14.2-33a13.46,13.46,0,0,0-22.6,2.2c-5.9,11.6-3.7,33.1,8.6,26.2a25.58,25.58,0,0,1,3.2-1.2l-.2-3.4a.6.6,0,0,0-.4.1c-4.9.7-8.2-3.8-9.7-10.6s1-10.2,1.6-10.8c9.4-5.7,13.8,6,14.3,9.8.4.7.6,3,.7,6q.6-.75.9-1.2a23.2,23.2,0,0,1,1.3,5.8"/><path class="cls-60" d="M836.33,547.2c1.3-.4,5.7,1.7,6.2,4.3.5,2.2-1.6,5-.5,8.2,1.7,5.5,6.3,6.4,6.6,11.2.2,2.7-2.9,5.4-2.9,8.2,0,3.6,1.6,3.1,1.8,6.6.2,2.9-4.3,8.6-3.8,16,.3,4.5,3.7,9.6,7.5,11.8l9.6,7.4s.7-13.8,1.1-16.3,1.5-9.3,1.2-10.9-2.5-20.9-2.5-20.9l-3.4-5.2-14.1-22.1-6.1-.9Z"/><path class="cls-60" d="M852.13,546.6c3.1,4.2,5.2,11.2,7.8,14.3,1.4,1.7,5.8,1.7,7.5,6s-.3,6.6.3,9.6,5,4.3,5.9,8.7c.5,2.4-.3,3.8.1,5.9s5.1,3.7,4.9,9.6c-.1,4.1-2.5,8.6-5.8,10.6-3-17.7-7-33.1-12.1-37.4a13.1,13.1,0,0,0-6.9-2.7c-.7-1.5-1.4-2.4-1.4-3.9s-5.6-16.1-5.6-16.1Z"/><path class="cls-25" d="M860.73,576.1c2.6-.2,10.4,6.2,9.5,30.4-.1,10.1-2.4,26-8,25.7s-33-19.4-33-19.4c-2,2-8.2.8-8.8-.3a45.65,45.65,0,0,1-1.2-6.3c1.3,1.5,7.7,2.6,8.4.5,1.1.3,26.5,6.1,26.5,6.1-1.7-6.1-6.1-35.9,6.6-36.7"/><path class="cls-6" d="M860.73,576.1c2.4-.2,9.5,5.5,9.5,26.2a62,62,0,0,1-17.9-.2c-1-10.9-.4-25.4,8.4-26"/><path class="cls-6" d="M836.23,617.5v3.3s6.5,3.7,13.3,6.9c4.9,2.3,10,4.3,12.7,4.4h0c5.6.3,7.9-15.6,8-25.7.9-24.2-6.9-30.6-9.5-30.4-12.7.8-8.3,30.6-6.6,36.6,0,0-10.1-2.3-17.9-4.1Z"/><g class="cls-65"><rect class="cls-66" x="1074.53" y="379.9" width="8.6" height="12.5"/></g><path class="cls-51" d="M1068.13,371.5c-1.3-1.8-2.6-9.5.7-11.8s3.4,3.2,3.6,3.7a4.28,4.28,0,0,1,.7,2.8c-.3,1.2-.9,4.5-1.2,5.1s-1.3,3.4-1.3,3.4Z"/><path class="cls-25" d="M1070.83,378c-5.4-.8-4.5-5.9-3.3-6.4s2,1,2.2,1.8h0a15.42,15.42,0,0,0,1.1,4.6Z"/><path class="cls-25" d="M1078.83,384c-.6,0-7.6-1.5-8.8-8.7s.1-13.7.8-14.7,8.1-.8,8.1-.8,7.4-.1,8.1.8,2,7.5.8,14.7c-1.4,7.2-8.4,8.7-9,8.7"/><path class="cls-51" d="M1087.73,374.4c2.4-2.4,6-17.7,2.7-21-1.4-1.5-3.7-.5-4.2-.2,0-3.4-6-9.3-10.8-4.3-1.3-2.4-5.6-3.3-8-1.2-2,1.7-3.9,7.4-1.4,11.5,3.3,5.3,15.3.5,18.4,2.7,1,.9,4.1,4.6,3.3,12.5"/><path class="cls-25" d="M1086.83,378c5.4-.8,4.5-5.9,3.3-6.4-1.5-.6-1.9,1.4-2.2,1.8a19.24,19.24,0,0,1-1.1,4.6Z"/><path class="cls-51" d="M1054.73,603.1c0,.6-.6,2.8,10.1,2.5a16.37,16.37,0,0,1,3.7-1.3c.3.1.5,1.2.5,1.2,1.3.2,5.1.5,5.4-.7.6-2.5-.5-6-2-7.2h-.4a2.15,2.15,0,0,1-2.1,1.9,5.26,5.26,0,0,1-3.4-2.3c-.8.3-4.6,4.4-7.4,4.8s-4-.5-4.4,1.1"/><path class="cls-33" d="M1066.63,597.3l-1-7.7,7.4-.3-.6,8.3c-.3,1.4-1,1.9-2.5,2a4,4,0,0,1-3.3-2.3"/><path class="cls-51" d="M1120.53,603.1c0,.6.6,2.8-10.1,2.5a16.37,16.37,0,0,0-3.7-1.3c-.3.1-.5,1.2-.5,1.2-1.3.2-5.1.5-5.4-.7-.6-2.5.5-6,2-7.2h.4a2.15,2.15,0,0,0,2.1,1.9,5.26,5.26,0,0,0,3.4-2.3c.8.3,4.6,4.4,7.4,4.8s4-.5,4.4,1.1"/><path class="cls-33" d="M1108.63,597.3l1-7.7-7.4-.3.6,8.3c.3,1.4,1,1.9,2.5,2a3.88,3.88,0,0,0,3.3-2.3"/><path class="cls-34" d="M1109.93,456.2c-17.7,8.9-44.8,6.2-54.2,3.4-2,38.2,5.4,108.3,8.6,137.2l16.3.1c1.8-25,2-102.5,3.2-118.1,0,12.4,10.7,105.5,13.3,117h13.8c-.1-14.8,3-97.2-1-139.6"/><path class="cls-25" d="M1032.83,457.8s-1.2,6-1.4,6.4c-3.6,2.9-6.4,16,.4,16.9,6.6.6,3.3-9.3,5.6-12.9.8.7,3.2,5.9,4.2,6.1s-.5-6.9-3.1-9.5a30.24,30.24,0,0,1,1-6.2Z"/><path class="cls-25" d="M1135.13,357.5s3.8-5,4.1-5.2c4.7-.5,11.5-9.2,7.4-12.7-4.5-3.4-8,2.1-9.3,6.1-.3-.8-.4-5-1.4-5.3s-2.7,5-1.4,8.3a29.61,29.61,0,0,1-3.7,4.1Z"/><path class="cls-20" d="M1130.83,351.4c-20.6,25.7-39.8,30.1-47.7,32.7v4a4.3,4.3,0,0,1-8.6,0v-2.8c-7.8,2.3-38.3,15.7-43.9,73.1l8.8,1.7c1.6-10,11.7-32.5,22.4-43.2-3.6,10.9-5.5,30.7-6.4,47.4,9.4,2.8,37.3,5.5,55-3.4-1.9-19.9-6.3-42.6-8.4-53.9,12.1-9.8,29.5-39.8,35.2-48Z"/><path class="cls-7" d="M937.73,68.5c-13.6,1-22.1-4-32.7-4.1-8.1,0-52.2,17.3-82.7,15.2S786,67,782.83,66.6c-4.5-.2-12.8,7.3-38.7,5.1-14-1.2-25.9-7.7-25.5-14.9,1.5-19.8,38.4-11.3,48.5-12.1,1.4-9.5,7.4-17.8,41.4-16.3-3.6-3.8-1.9-27.6,37-28.4,44.1,2.5,60.5,33.6,65.6,37.6,2.9,2.2,21.8-2.5,36.2.5,25.4,5.5,19.2,28.2-9.6,30.4"/><path class="cls-7" d="M1090.13,274c17.4,5.9,121.5,0,144.4.4-2.1-.9-7.3-2-14.7-3.1,5.2-5.1-2.9-17.4-9.7-15.2.3-2.7-2.2-5.9-5.6-5.1a11,11,0,0,0-10.7-8.4,10.9,10.9,0,0,0-2.6.3,14.81,14.81,0,0,0-13.6-9.1,16,16,0,0,0-3.9.5,22.41,22.41,0,0,0-42.7,9.5,18.7,18.7,0,0,0,.3,3.4,10.9,10.9,0,0,0-2.6-.3,12.61,12.61,0,0,0-12.6,12.6,21.05,21.05,0,0,0,.2,2.5,4.74,4.74,0,0,0-3.3,4.5,4.62,4.62,0,0,0,1.1,3,204.82,204.82,0,0,0-24,4.5"/><path class="cls-7" d="M428.93,41.2c-7.2.6-11.8-2.1-17.4-2.2-4.3,0-27.8,9.2-44.1,8.1s-19.3-6.7-21.1-7c-2.4-.1-6.8,3.9-20.6,2.7-7.5-.6-13.8-4.1-13.6-7.9.8-10.5,20.5-6,25.9-6.4.8-5.1,3.9-9.5,22.1-8.7-1.9-2-1-14.7,19.7-15.1,23.5,1.3,32.2,17.9,35,20,1.5,1.2,11.6-1.3,19.3.3,13.5,2.9,10.2,15.1-5.2,16.2"/><path class="cls-7" d="M19.53,306.1c-2.3,7,6,25,55,24.4,24.1,5.1,69.5-3.6,66.6-22.3-1.2-7.6-8.5-5.9-14-8.3-2.2-1-2.4-6.8-6.9-9.3s-10.3,2.8-15,1.8-19.4-12.9-35.8-10.3-17,15.6-20,16.5-21.1-9.6-29.9,7.5"/></g></g></svg>