<svg xmlns="http://www.w3.org/2000/svg" viewBox="0 0 24 24"><defs><style>.cls-1{fill:#2d61bb;}</style></defs><title>i-benefits</title><g id="Layer_2" data-name="Layer 2"><g id="Icons"><g id="Interface-Essential_Paragraphs_paragraph-bullets" data-name="Interface-Essential / Paragraphs / paragraph-bullets"><g id="Group_460" data-name="Group 460"><g id="paragraph-bullets"><path class="cls-1" d="M21.75,24H2.25A2.25,2.25,0,0,1,0,21.75V2.25A2.25,2.25,0,0,1,2.25,0h19.5A2.25,2.25,0,0,1,24,2.25v19.5A2.25,2.25,0,0,1,21.75,24ZM2.25,1.5a.76.76,0,0,0-.75.75v19.5a.76.76,0,0,0,.75.75h19.5a.76.76,0,0,0,.75-.75V2.25a.76.76,0,0,0-.75-.75Z"/><path class="cls-1" d="M18.75,6h-4.5a.75.75,0,0,1,0-1.5h4.5a.75.75,0,0,1,0,1.5Z"/><path class="cls-1" d="M18.75,10.5h-6a.75.75,0,0,1,0-1.5h6a.75.75,0,0,1,0,1.5Z"/><path class="cls-1" d="M18.75,15h-6a.75.75,0,0,1,0-1.5h6a.75.75,0,0,1,0,1.5Z"/><path class="cls-1" d="M17.25,19.5h-4.5a.75.75,0,0,1,0-1.5h4.5a.75.75,0,0,1,0,1.5Z"/><path class="cls-1" d="M9.75,10.5H5.25a.76.76,0,0,1-.75-.75V5.25a.76.76,0,0,1,.75-.75h4.5a.76.76,0,0,1,.75.75v4.5A.76.76,0,0,1,9.75,10.5ZM6,9H9V6H6Z"/><path class="cls-1" d="M9.75,19.5H5.25a.76.76,0,0,1-.75-.75v-4.5a.76.76,0,0,1,.75-.75h4.5a.76.76,0,0,1,.75.75v4.5A.76.76,0,0,1,9.75,19.5ZM6,18H9V15H6Z"/></g></g></g></g></g></svg>