<svg xmlns="http://www.w3.org/2000/svg" viewBox="0 0 36.39 37.57"><defs><style>.cls-1{fill:#61abfd;}.cls-2{fill:none;stroke:#2d61bb;stroke-linecap:round;stroke-linejoin:round;stroke-width:1.2px;}</style></defs><title>i-builder</title><g id="Layer_2" data-name="Layer 2"><g id="Icons"><rect class="cls-1" x="6.51" width="29.88" height="29.88" rx="6.83" ry="6.83"/><g id="Interface-Essential_Setting_wench" data-name="Interface-Essential / Setting / wench"><g id="Group_160" data-name="Group 160"><g id="wench"><path id="Shape_732" data-name="Shape 732" class="cls-2" d="M27,23.23a9,9,0,0,0,1.67-10.37l-4.58,4.58a1.93,1.93,0,0,1-2.74,0l-1-1a1.93,1.93,0,0,1,0-2.74L25,9A9,9,0,0,0,12.6,20.75L1.18,32.16a2,2,0,0,0,0,2.81l1.41,1.41a2,2,0,0,0,2.82,0L16.81,25A9,9,0,0,0,27,23.23Z"/></g></g></g></g></g></svg>