<svg xmlns="http://www.w3.org/2000/svg" viewBox="0 0 22 20.5"><defs><style>.cls-1{fill:#61abfd;}.cls-2{fill:none;stroke:#2d61bb;stroke-linecap:round;stroke-linejoin:round;}</style></defs><title>i-customize</title><g id="Layer_2" data-name="Layer 2"><g id="Icons"><rect class="cls-1" x="1.03" y="0.86" width="20.47" height="3.39"/><g id="Interface-Essential_Setting_cog-browser" data-name="Interface-Essential / Setting / cog-browser"><g id="Group_141" data-name="Group 141"><g id="cog-browser"><path id="Shape_658" data-name="Shape 658" class="cls-2" d="M14.75,20H20a1.5,1.5,0,0,0,1.5-1.5V2A1.5,1.5,0,0,0,20,.5H2A1.5,1.5,0,0,0,.5,2V18.5A1.5,1.5,0,0,0,2,20H7.25"/><path id="Shape_659" data-name="Shape 659" class="cls-2" d="M.5,4.25h21"/><path id="Oval_82" data-name="Oval 82" class="cls-2" d="M11,16.7A3.75,3.75,0,1,0,7.25,13,3.75,3.75,0,0,0,11,16.7Z"/><path id="Shape_660" data-name="Shape 660" class="cls-2" d="M11,9.2V7.4"/><path id="Shape_661" data-name="Shape 661" class="cls-2" d="M11,18.5V16.7"/><path id="Shape_662" data-name="Shape 662" class="cls-2" d="M14.75,13h1.8"/><path id="Shape_663" data-name="Shape 663" class="cls-2" d="M5.45,13h1.8"/><path id="Shape_664" data-name="Shape 664" class="cls-2" d="M7.46,9,8.57,10.1"/><path id="Shape_665" data-name="Shape 665" class="cls-2" d="M14.54,9,13.43,10.1"/><path id="Shape_666" data-name="Shape 666" class="cls-2" d="M7.46,16.91,8.57,15.8"/><path id="Shape_667" data-name="Shape 667" class="cls-2" d="M14.54,16.91,13.43,15.8"/><path id="Shape_668" data-name="Shape 668" class="cls-2" d="M11,12.2a.75.75,0,1,1-.75.75A.76.76,0,0,1,11,12.2"/></g></g></g></g></g></svg>