<svg xmlns="http://www.w3.org/2000/svg" viewBox="0 0 24 18"><defs><style>.cls-1{fill:#2d61bb;}</style></defs><title>i-download</title><g id="Layer_2" data-name="Layer 2"><g id="Icons"><g id="Internet-Networks-Servers_Upload_Download_download-bottom" data-name="Internet-Networks-Servers / Upload/Download / download-bottom"><g id="Group_162" data-name="Group 162"><g id="download-bottom"><path class="cls-1" d="M12,13.5a.76.76,0,0,1-.75-.75V.75a.75.75,0,0,1,1.5,0v12A.76.76,0,0,1,12,13.5Z"/><path class="cls-1" d="M12,13.5a.74.74,0,0,1-.53-.22L7,8.78A.75.75,0,0,1,8,7.72l4,4,4-4A.75.75,0,0,1,17,8.78l-4.5,4.5A.74.74,0,0,1,12,13.5Z"/><path class="cls-1" d="M20.25,18H3.75A3.75,3.75,0,0,1,0,14.25v-1.5A.76.76,0,0,1,.75,12a.76.76,0,0,1,.75.75v1.5A2.25,2.25,0,0,0,3.75,16.5h16.5a2.25,2.25,0,0,0,2.25-2.25v-1.5a.75.75,0,0,1,1.5,0v1.5A3.75,3.75,0,0,1,20.25,18Z"/></g></g></g></g></g></svg>