<svg xmlns="http://www.w3.org/2000/svg" viewBox="0 0 24 24"><defs><style>.cls-1{fill:#2d61bb;}</style></defs><title>i-how-works</title><g id="Layer_2" data-name="Layer 2"><g id="Icons"><g id="Interface-Essential_Form-Edition_paper-write" data-name="Interface-Essential / Form-Edition / paper-write"><g id="Group_376" data-name="Group 376"><g id="paper-write"><path class="cls-1" d="M9.33,19.92a.77.77,0,0,1-.53-.22.8.8,0,0,1-.21-.64l.53-3.71a.79.79,0,0,1,.21-.43l9.55-9.54a3.08,3.08,0,0,1,4.24,0,3,3,0,0,1,0,4.24l-9.54,9.55a.79.79,0,0,1-.43.21l-3.71.53ZM13,18.64h0Zm-2.47-2.83-.35,2.47,2.47-.35,9.37-9.37a1.5,1.5,0,0,0,0-2.12,1.53,1.53,0,0,0-2.12,0Z"/><path class="cls-1" d="M12,4.5H6A1.5,1.5,0,0,1,4.5,3V1.5A1.5,1.5,0,0,1,6,0h6a1.5,1.5,0,0,1,1.5,1.5V3A1.5,1.5,0,0,1,12,4.5Zm-6-3V3h6V1.5Z"/><path class="cls-1" d="M17.25,4.5a.76.76,0,0,1-.75-.75A.76.76,0,0,0,15.75,3h-3a.75.75,0,0,1,0-1.5h3A2.25,2.25,0,0,1,18,3.75.76.76,0,0,1,17.25,4.5Z"/><path class="cls-1" d="M15.75,24H2.25A2.25,2.25,0,0,1,0,21.75v-18A2.25,2.25,0,0,1,2.25,1.5h3a.75.75,0,0,1,0,1.5h-3a.76.76,0,0,0-.75.75v18a.76.76,0,0,0,.75.75h13.5a.76.76,0,0,0,.75-.75v-3a.75.75,0,0,1,1.5,0v3A2.25,2.25,0,0,1,15.75,24Z"/><path class="cls-1" d="M12.75,9H5.25a.75.75,0,0,1,0-1.5h7.5a.75.75,0,0,1,0,1.5Z"/><path class="cls-1" d="M8.25,13.5h-3a.75.75,0,0,1,0-1.5h3a.75.75,0,0,1,0,1.5Z"/></g></g></g></g></g></svg>