<svg xmlns="http://www.w3.org/2000/svg" viewBox="0 0 19 23.5"><defs><style>.cls-1{fill:#61abfd;}.cls-2{fill:none;stroke:#2d61bb;stroke-linecap:round;stroke-linejoin:round;}</style></defs><title>i-profile</title><g id="Layer_2" data-name="Layer 2"><g id="Icons"><rect class="cls-1" x="0.98" y="0.5" width="17.27" height="17.95"/><g id="Users_Geometric-Close-Up-Single-User-Neutral_single-neutral-book" data-name="Users / Geometric-Close-Up-Single-User-Neutral / single-neutral-book"><g id="Group_296" data-name="Group 296"><g id="Regular_296" data-name="Regular 296"><path id="Shape_1190" data-name="Shape 1190" class="cls-2" d="M18.5,23H2.75A2.25,2.25,0,0,1,.5,20.75"/><path id="Shape_1191" data-name="Shape 1191" class="cls-2" d="M3.5.5a3,3,0,0,0-3,3V20.75A2.25,2.25,0,0,1,2.75,18.5H17A1.5,1.5,0,0,0,18.5,17V2A1.5,1.5,0,0,0,17,.5Z"/><path id="Shape_1192" data-name="Shape 1192" class="cls-2" d="M17,23V18.5"/><path id="Oval_453" data-name="Oval 453" class="cls-2" d="M9.5,10.25A2.63,2.63,0,1,0,6.88,7.62,2.62,2.62,0,0,0,9.5,10.25Z"/><path id="Shape_1193" data-name="Shape 1193" class="cls-2" d="M5,15.5a4.5,4.5,0,0,1,9,0"/></g></g></g></g></g></svg>