<svg xmlns="http://www.w3.org/2000/svg" viewBox="0 0 24 23.49"><defs><style>.cls-1{fill:#2d61bb;}</style></defs><title>i-pricing-alt</title><g id="Layer_2" data-name="Layer 2"><g id="Icons"><g id="Money-Payments-Finance_Money_money-wallet" data-name="Money-Payments-Finance / Money / money-wallet"><g id="Group_29" data-name="Group 29"><g id="money-wallet"><path class="cls-1" d="M18.75,23.49h-15A3.75,3.75,0,0,1,0,19.74V9.24A3.75,3.75,0,0,1,3.75,5.49h15A3.75,3.75,0,0,1,22.5,9.24v1.5a.75.75,0,1,1-1.5,0V9.24A2.25,2.25,0,0,0,18.75,7h-15A2.25,2.25,0,0,0,1.5,9.24v10.5A2.25,2.25,0,0,0,3.75,22h15A2.25,2.25,0,0,0,21,19.74v-1.5a.75.75,0,1,1,1.5,0v1.5A3.75,3.75,0,0,1,18.75,23.49Z"/><path class="cls-1" d="M18.75,7a.74.74,0,0,1-.67-.42L15.75,1.92a.76.76,0,0,0-.43-.38.78.78,0,0,0-.58,0L4.08,6.91a.75.75,0,0,1-.66-1.34L14.07.24A2.24,2.24,0,0,1,15.79.12a2.27,2.27,0,0,1,1.3,1.13L19.42,5.9a.75.75,0,0,1-.34,1A.76.76,0,0,1,18.75,7Z"/><path class="cls-1" d="M21.75,19H18a4.5,4.5,0,0,1,0-9h3.75A2.25,2.25,0,0,1,24,12.24v4.5A2.25,2.25,0,0,1,21.75,19ZM18,11.49a3,3,0,0,0,0,6h3.75a.76.76,0,0,0,.75-.75v-4.5a.76.76,0,0,0-.75-.75Z"/><path class="cls-1" d="M18,15.62a1.13,1.13,0,1,1,1.12-1.13A1.13,1.13,0,0,1,18,15.62Zm0-1.5a.37.37,0,0,0-.38.37.38.38,0,1,0,.76,0A.37.37,0,0,0,18,14.12Z"/></g></g></g></g></g></svg>