<svg xmlns="http://www.w3.org/2000/svg" viewBox="0 0 23.5 22.99"><defs><style>.cls-1{fill:#61abfd;}.cls-2{fill:none;stroke:#2d61bb;stroke-linecap:round;stroke-linejoin:round;}</style></defs><title>i-pricing</title><g id="Layer_2" data-name="Layer 2"><g id="Icons"><polygon class="cls-1" points="14.83 0.51 4.1 5.69 18.33 5.69 16.17 0.78 14.83 0.51"/><path class="cls-1" d="M17.5,10.49h5.17a0,0,0,0,1,0,0v7.19a0,0,0,0,1,0,0H17.5a3.5,3.5,0,0,1-3.5-3.5V14A3.5,3.5,0,0,1,17.5,10.49Z"/><g id="Money-Payments-Finance_Money_money-wallet" data-name="Money-Payments-Finance / Money / money-wallet"><g id="Group_29" data-name="Group 29"><g id="money-wallet"><path id="Shape_185" data-name="Shape 185" class="cls-2" d="M21.5,18v1.5a3,3,0,0,1-3,3H3.5a3,3,0,0,1-3-3V9a3,3,0,0,1,3-3h15a3,3,0,0,1,3,3v1.5"/><path id="Shape_186" data-name="Shape 186" class="cls-2" d="M18.5,6,16.17,1.33a1.5,1.5,0,0,0-2-.67L3.5,6"/><path id="Shape_187" data-name="Shape 187" class="cls-2" d="M21.5,18a1.5,1.5,0,0,0,1.5-1.5V12a1.5,1.5,0,0,0-1.5-1.5H17.75a3.75,3.75,0,0,0,0,7.5Z"/><path id="Shape_188" data-name="Shape 188" class="cls-2" d="M17.75,13.86a.37.37,0,0,1,.37.38.37.37,0,1,1-.74,0,.37.37,0,0,1,.37-.38"/></g></g></g></g></g></svg>