<svg xmlns="http://www.w3.org/2000/svg" viewBox="0 0 512 358"><defs><style>.cls-1{fill:#2d61bb;}</style></defs><title>i-quotes</title><g id="Layer_2" data-name="Layer 2"><g id="Capa_1" data-name="Capa 1"><path class="cls-1" d="M392,0a120,120,0,0,0-2.44,240l.92,0a20,20,0,0,0,1-40l-1.11,0c-43.23-.84-78.41-36.72-78.41-80a80,80,0,0,1,160,0c0,55.1-13.1,105.94-38.95,151.11-19.32,33.77-39,51.6-39.33,51.93a20,20,0,0,0,26.51,30c1-.86,23.95-21.35,46.57-60.34C487.42,257.12,512,198.32,512,120A120.13,120.13,0,0,0,392,0Z"/><path class="cls-1" d="M120,0a120,120,0,0,0-2.44,240l.92,0a20,20,0,0,0,1-40l-1.11,0C75.18,199.14,40,163.26,40,120a80,80,0,0,1,160,0c0,55.1-13.1,105.94-38.95,151.11-19.32,33.77-39,51.6-39.33,51.93a20,20,0,0,0,26.51,30c1-.86,24-21.35,46.57-60.34C215.42,257.12,240,198.32,240,120A120.13,120.13,0,0,0,120,0Z"/></g></g></svg>