<svg xmlns="http://www.w3.org/2000/svg" viewBox="0 0 24 24"><defs><style>.cls-1{fill:#2d61bb;}</style></defs><title>i-register</title><g id="Layer_2" data-name="Layer 2"><g id="Icons"><g id="Interface-Essential_Login_Logout_login-3" data-name="Interface-Essential / Login/Logout / login-3"><g id="Group_34" data-name="Group 34"><g id="login-3"><path class="cls-1" d="M9.75,22.5H5.25A2.25,2.25,0,0,1,3,20.25v-1.5a.75.75,0,0,1,1.5,0v1.5a.76.76,0,0,0,.75.75h4.5a.75.75,0,0,1,0,1.5Z"/><path class="cls-1" d="M3.75,7.5A.75.75,0,0,1,3,6.75V5.25A2.25,2.25,0,0,1,5.25,3h4.5a.75.75,0,0,1,0,1.5H5.25a.76.76,0,0,0-.75.75v1.5A.75.75,0,0,1,3.75,7.5Z"/><path class="cls-1" d="M13.5,24A1.51,1.51,0,0,1,12,22.5V1.5A1.48,1.48,0,0,1,12.56.33,1.52,1.52,0,0,1,13.81,0l9,2.23A1.5,1.5,0,0,1,24,3.72V21.21a1.5,1.5,0,0,1-1.29,1.49l-9,1.29Zm0-22.51,0,21,9-1.29V3.72Z"/><path class="cls-1" d="M9,13.5H.75a.75.75,0,0,1,0-1.5H7.19L5.47,10.28A.75.75,0,0,1,6.53,9.22l3,3A.75.75,0,0,1,9,13.5Z"/><path class="cls-1" d="M6,16.5a.74.74,0,0,1-.53-.22.75.75,0,0,1,0-1.06l3-3a.75.75,0,0,1,1.06,1.06l-3,3A.74.74,0,0,1,6,16.5Z"/><path class="cls-1" d="M16.13,13.13a1.2,1.2,0,0,1-.45-.09A1.11,1.11,0,0,1,15,12a1.13,1.13,0,0,1,.33-.79,1.23,1.23,0,0,1,.8-.33h.13a1.13,1.13,0,0,1-.13,2.25Zm0-.75h0Z"/></g></g></g></g></g></svg>