<svg xmlns="http://www.w3.org/2000/svg" viewBox="0 0 17 23.98"><defs><style>.cls-1{fill:#2d61bb;}</style></defs><title>i-select</title><g id="Layer_2" data-name="Layer 2"><g id="Icons"><g id="Interface-Essential_Select_circle-pad-finger" data-name="Interface-Essential / Select / circle-pad-finger"><g id="Group_635" data-name="Group 635"><g id="circle-pad-finger"><path class="cls-1" d="M15.73,24h-9a.74.74,0,0,1-.6-.3L2.28,18.55a2.3,2.3,0,0,1-.08-2.64,2.29,2.29,0,0,1,3.27-.56l.5.38V7.48a2.28,2.28,0,0,1,.67-1.59,2.25,2.25,0,0,1,1.59-.66h0a2.25,2.25,0,0,1,2.25,2.25v5.4l3.59.8a3.77,3.77,0,0,1,2.92,4l-.51,5.62A.75.75,0,0,1,15.73,24ZM7.1,22.48H15l.45-4.94a2.25,2.25,0,0,0-1.75-2.4l-4.17-.92A.76.76,0,0,1,9,13.48v-6a.76.76,0,0,0-.75-.75h0A.73.73,0,0,0,7.7,7a.72.72,0,0,0-.23.53v9.75a.75.75,0,0,1-1.2.6l-1.7-1.28a.75.75,0,0,0-.6-.14.77.77,0,0,0-.49,1.24Z"/><path class="cls-1" d="M3,14.34a.74.74,0,0,1-.53-.22A8.25,8.25,0,0,1,13,1.46a8.31,8.31,0,0,1,2.43,10.9.76.76,0,0,1-1,.28.75.75,0,0,1-.27-1A6.75,6.75,0,0,0,3,3.93a6.78,6.78,0,0,0,.46,9.12.75.75,0,0,1,0,1.06A.74.74,0,0,1,3,14.34Z"/></g></g></g></g></g></svg>