<svg xmlns="http://www.w3.org/2000/svg" viewBox="0 0 22.5 22.5"><defs><style>.cls-1{fill:#2d61bb;}</style></defs><title>i-templates</title><g id="Layer_2" data-name="Layer 2"><g id="Icons"><g id="Interface-Essential_Layouts_layout" data-name="Interface-Essential / Layouts / layout"><g id="Group_496" data-name="Group 496"><g id="layout"><path class="cls-1" d="M20.25,22.5h-18A2.25,2.25,0,0,1,0,20.25v-18A2.25,2.25,0,0,1,2.25,0h18A2.25,2.25,0,0,1,22.5,2.25v18A2.25,2.25,0,0,1,20.25,22.5Zm-18-21a.76.76,0,0,0-.75.75v18a.76.76,0,0,0,.75.75h18a.76.76,0,0,0,.75-.75v-18a.76.76,0,0,0-.75-.75Z"/><path class="cls-1" d="M6.75,22.5A.76.76,0,0,1,6,21.75V.75a.75.75,0,0,1,1.5,0v21A.76.76,0,0,1,6.75,22.5Z"/><path class="cls-1" d="M21.75,12h-15a.75.75,0,0,1,0-1.5h15a.75.75,0,0,1,0,1.5Z"/></g></g></g></g></g></svg>