<svg xmlns="http://www.w3.org/2000/svg" viewBox="0 0 862.1 196.81"><defs><style>.cls-1{fill:#535660;}</style></defs><title>logo</title><g id="Layer_2" data-name="Layer 2"><g id="Layer_1-2" data-name="Layer 1"><path class="cls-1" d="M57.9,6.11c15.2-.7,30.1-1.3,45-2L191.7.21c1,0,2.1-.1,3.1-.2,7.5-.1,11.4.7,13.3,7.8Q151.55,12,94,16.21c2.2,3.5,4.1,6.6,6,9.7,19.5,32.8,33.7,67.7,41,105.2a203.94,203.94,0,0,1,3.9,32.1c.1,2.6.6,3.1,3.1,1.9,28-13.6,57.7-20.7,88.6-23.3,6-.5,11.9-.7,17.9-.7a15.65,15.65,0,0,1,2,.3c-46,9.8-88,26.8-125.2,55.4C130.1,124.31,102.5,62.21,57.9,6.11Z"/><path class="cls-1" d="M24,31.61c9.1-1.4,17.2-2.7,25.3-4,1.9-.3,3.6-.7,5.8-.9,4.1-.5,6.4.1,9,3.3,20.6,25.4,34.4,54.3,44,85.3a331.33,331.33,0,0,1,12.2,57.4,30.85,30.85,0,0,1,0,3.1c-4.4-12-8.7-23.3-13.7-34.4-12.8-28.7-28.1-55.9-48.7-79.8a197.61,197.61,0,0,0-15.6-16.1A107.13,107.13,0,0,0,24,31.61Z"/><path class="cls-1" d="M0,60.11c12.1-3.3,23.9-6.5,35.7-9.7,2-.6,2.9.8,4.1,1.9,16.5,16,30,34.3,41.8,54a383.63,383.63,0,0,1,31,65.4,4.31,4.31,0,0,1,.3,1.7C85.2,125.71,48.8,86.91,0,60.11Z"/><path class="cls-1" d="M113.4,29.61s10.9,14.2,14.8,28.7l24.5-4.8-12.3-27Z"/><rect class="cls-1" x="152.49" y="24.81" width="54.6" height="3.4" transform="translate(-1.87 21.36) rotate(-6.77)"/><rect class="cls-1" x="154.5" y="34.4" width="54.6" height="3.4" transform="translate(-2.99 21.74) rotate(-6.79)"/><rect class="cls-1" x="158.29" y="43.89" width="54.6" height="3.4" transform="translate(-4.08 22.2) rotate(-6.77)"/><path class="cls-1" d="M134.7,80.51l1,3.3c.4-.1,39-12,71.8-13.9,1.5-1.3,3.1-2.5,4.6-3.7C177.9,67.21,135.1,80.41,134.7,80.51Z"/><path class="cls-1" d="M138.8,91.91l1,3.3c.1,0,3.9-1.2,10-2.8l-1.5-3.2C142.5,90.71,139,91.81,138.8,91.91Z"/><path class="cls-1" d="M193.1,83.21c1.3-1.4,2.7-2.7,4-4A365.8,365.8,0,0,0,152.9,88l3.4,2.7A358.35,358.35,0,0,1,193.1,83.21Z"/><path class="cls-1" d="M224.4,92.31v-3.4c-3.4,0-6.8.1-10.4.4-.9,1.2-1.9,2.4-2.8,3.7A120.53,120.53,0,0,1,224.4,92.31Z"/><path class="cls-1" d="M143,103.21l1,3.3c.1,0,4.4-1.3,11.2-3.1l-1.5-3.2C147.2,101.91,143.1,103.21,143,103.21Z"/><path class="cls-1" d="M167.9,99.61c.2.2.4.3.6.5,3.7-.9,7.8-1.7,12-2.6,1.2-1.4,2.3-2.8,3.5-4.2-6.8,1.3-13.2,2.7-18.9,4Z"/><path class="cls-1" d="M147.2,114.61l1,3.3c.1,0,4.9-1.5,12.3-3.4l-1.5-3.2C151.8,113.11,147.3,114.51,147.2,114.61Z"/><path class="cls-1" d="M228.6,103.71v-3.4a194.39,194.39,0,0,0-23.7,1.7c-.9,1.3-1.7,2.5-2.5,3.8A182.4,182.4,0,0,1,228.6,103.71Z"/><path class="cls-1" d="M232.7,115v-3.4c-11.6,0-24.4,1.6-36.4,3.7-.8,1.3-1.5,2.6-2.3,3.9C206.7,116.81,220.5,115,232.7,115Z"/><path class="cls-1" d="M151.3,125.91l1,3.3c.2,0,5.3-1.6,13.4-3.7l-1.5-3.2C156.5,124.31,151.5,125.91,151.3,125.91Z"/><path class="cls-1" d="M236.9,126.41V123c-15.5,0-33.2,2.8-48.2,5.9-.7,1.3-1.4,2.6-2.1,4C202,129.51,220.7,126.41,236.9,126.41Z"/><path class="cls-1" d="M155.5,137.31l1,3.3c.2,0,5.8-1.8,14.6-4l-1.5-3.2C161.1,135.51,155.7,137.21,155.5,137.31Z"/><path class="cls-1" d="M251.1,51.41l2-1-1.9.3a70.89,70.89,0,0,0-22.8,8.7c-20.5,12-36.7,28.7-51,47.4-2.1,2.7-3.2,2.4-5.4.5-2-1.8-4.1-3.5-6.2-5.1l-11.6-9c7.8,16.3,15.6,32.5,23.7,49.3a20.28,20.28,0,0,0,1.2-2c9.6-20.2,20.9-39.3,34.9-56.7C224.3,70.91,235.9,58.71,251.1,51.41Z"/><path class="cls-1" d="M314.9,74.21l-6.8-.3a14.57,14.57,0,0,0-7.8,2,12.57,12.57,0,0,0-4.8,5.6v49.2H279.6V59.91h14.5l1,10.3a22.68,22.68,0,0,1,6.9-8.5,16.49,16.49,0,0,1,9.7-3.1,21.3,21.3,0,0,1,2.7.2,15.45,15.45,0,0,1,2.3.6Z"/><path class="cls-1" d="M355.5,132.11c-10.3,0-18.4-3.3-24.3-9.8s-8.7-15-8.7-25.4v-2.6c0-10.4,2.9-18.9,8.7-25.7a28,28,0,0,1,22.5-10c9.5,0,16.7,2.9,21.6,8.8s7.3,13.7,7.3,23.5v8.6H338.8l-.1.3c.2,5.8,1.7,10.5,4.6,14.1s7.2,5.4,13,5.4a34,34,0,0,0,11.2-1.6,31.84,31.84,0,0,0,8.8-4.5l5.2,10.4a34.89,34.89,0,0,1-10.7,6A42.33,42.33,0,0,1,355.5,132.11Zm-1.7-60.7a12.12,12.12,0,0,0-9.9,4.5,22.09,22.09,0,0,0-4.6,11.7l.1.3h27.7v-1.2c0-4.5-1.1-8.2-3.2-11S358.4,71.41,353.8,71.41Z"/><path class="cls-1" d="M435.4,111.31a7.4,7.4,0,0,0-3.1-6.1c-2.1-1.6-6-3-11.7-4.3-8.3-1.7-14.7-4.2-19.1-7.5A15.91,15.91,0,0,1,394.9,80c0-5.9,2.5-11,7.5-15.2s11.6-6.3,19.8-6.3c8.5,0,15.3,2.2,20.5,6.5s7.6,9.6,7.4,15.7l-.1.4H434.7a9.77,9.77,0,0,0-3.4-7.5,12.94,12.94,0,0,0-9.1-3.2c-3.8,0-6.8.9-8.8,2.6a8.15,8.15,0,0,0-3,6.4,7,7,0,0,0,2.8,5.8c1.9,1.4,5.7,2.7,11.6,3.9,8.7,1.7,15.2,4.3,19.6,7.7a16.28,16.28,0,0,1,6.6,13.6,18.62,18.62,0,0,1-7.9,15.6c-5.3,4-12.2,6.1-20.8,6.1-9.2,0-16.5-2.4-21.8-7.1s-7.9-10.1-7.6-16.2l.1-.4h14.8q.3,6.15,4.5,9a17.71,17.71,0,0,0,10.2,2.8c4.1,0,7.2-.8,9.5-2.4A7.52,7.52,0,0,0,435.4,111.31Z"/><path class="cls-1" d="M509.5,120.21a24.53,24.53,0,0,1-8.4,8.8,22.24,22.24,0,0,1-11.9,3.1c-7.6,0-13.5-2.5-17.8-7.5s-6.4-12.8-6.4-23.3V59.91h15.8v41.6c0,6.8,1,11.4,2.9,13.9s5,3.8,9.2,3.8a20.46,20.46,0,0,0,9.7-2.1,15.3,15.3,0,0,0,6.1-6V59.91h15.9v70.8H510.9Z"/><path class="cls-1" d="M555.8,59.91l.9,9.2a23.21,23.21,0,0,1,8.7-7.8,26,26,0,0,1,12.1-2.7,21.76,21.76,0,0,1,11.9,3.1,19.28,19.28,0,0,1,7.5,9.4,25.43,25.43,0,0,1,8.6-9.2,23.68,23.68,0,0,1,12.6-3.3c7.1,0,12.7,2.5,16.9,7.4s6.2,12.4,6.2,22.5v42.2H625.3V88.41c0-6.2-1-10.6-3.1-13.1s-5.2-3.8-9.3-3.8a13.59,13.59,0,0,0-8.6,2.7,14.59,14.59,0,0,0-5.1,7.4,8.62,8.62,0,0,0,.1,1.7c0,.5.1.9.1,1.4v45.9H583.5V88.41c0-6-1.1-10.3-3.2-12.9s-5.2-3.9-9.3-3.9a16.05,16.05,0,0,0-8.2,1.9,13.5,13.5,0,0,0-5.3,5.3v52H541.6V59.91Z"/><path class="cls-1" d="M687.9,132.11c-10.3,0-18.4-3.3-24.3-9.8s-8.7-15-8.7-25.4v-2.6c0-10.4,2.9-18.9,8.7-25.7a28,28,0,0,1,22.5-10c9.5,0,16.7,2.9,21.6,8.8s7.3,13.7,7.3,23.5v8.6H671.2l-.1.3c.2,5.8,1.7,10.5,4.6,14.1s7.2,5.4,13,5.4a34,34,0,0,0,11.2-1.6,31.84,31.84,0,0,0,8.8-4.5l5.2,10.4a34.89,34.89,0,0,1-10.7,6A42.33,42.33,0,0,1,687.9,132.11Zm-1.7-60.7a12.12,12.12,0,0,0-9.9,4.5,22.09,22.09,0,0,0-4.6,11.7l.1.3h27.6v-1.2c0-4.5-1.1-8.2-3.2-11S690.8,71.41,686.2,71.41Z"/><path class="cls-1" d="M745.5,130.71H729.7v-15.3h15.8Z"/><path class="cls-1" d="M782.4,130.71H766.5V28.61h15.9Z"/><path class="cls-1" d="M822,99.81h-5.9v31H800.3V28.61h15.8V87h5.4l19.2-27.1h18.7l-24.3,32.6,27,38.2H843.6Z"/></g></g></svg>