<?xml version="1.0" encoding="utf-8"?>
<!-- Generator: Adobe Illustrator 22.1.0, SVG Export Plug-In . SVG Version: 6.00 Build 0)  -->
<svg version="1.1" id="Layer_1" xmlns="http://www.w3.org/2000/svg" xmlns:xlink="http://www.w3.org/1999/xlink" x="0px" y="0px"
	 viewBox="0 0 862.1 196.8" style="enable-background:new 0 0 862.1 196.8;" xml:space="preserve">
<style type="text/css">
	.st0{fill:#5495CF;}
</style>
<g>
	<g>
		<path class="st0" d="M57.9,6.1c15.2-0.7,30.1-1.3,45-2c29.6-1.3,59.2-2.6,88.8-3.9c1,0,2.1-0.1,3.1-0.2c7.5-0.1,11.4,0.7,13.3,7.8
			c-37.7,2.8-75.7,5.6-114.1,8.4c2.2,3.5,4.1,6.6,6,9.7c19.5,32.8,33.7,67.7,41,105.2c2.1,10.6,3.5,21.3,3.9,32.1
			c0.1,2.6,0.6,3.1,3.1,1.9c28-13.6,57.7-20.7,88.6-23.3c6-0.5,11.9-0.7,17.9-0.7c0.4,0,0.8,0.1,2,0.3c-46,9.8-88,26.8-125.2,55.4
			C130.1,124.3,102.5,62.2,57.9,6.1z"/>
		<path class="st0" d="M24,31.6c9.1-1.4,17.2-2.7,25.3-4c1.9-0.3,3.6-0.7,5.8-0.9c4.1-0.5,6.4,0.1,9,3.3
			c20.6,25.4,34.4,54.3,44,85.3c5.8,18.8,9.8,37.9,12.2,57.4c0.1,0.8,0,1.5,0,3.1c-4.4-12-8.7-23.3-13.7-34.4
			c-12.8-28.7-28.1-55.9-48.7-79.8c-4.9-5.7-10.1-11-15.6-16.1C36.9,40.5,31.2,36,24,31.6z"/>
		<path class="st0" d="M0,60.1c12.1-3.3,23.9-6.5,35.7-9.7c2-0.6,2.9,0.8,4.1,1.9c16.5,16,30,34.3,41.8,54
			c12.4,20.8,22.7,42.6,31,65.4c0.2,0.5,0.3,1,0.3,1.7C85.2,125.7,48.8,86.9,0,60.1z"/>
		<path class="st0" d="M113.4,29.6c0,0,10.9,14.2,14.8,28.7l24.5-4.8l-12.3-27L113.4,29.6z"/>
		<g>
			
				<rect x="152.5" y="24.8" transform="matrix(0.993 -0.1178 0.1178 0.993 -1.8696 21.3627)" class="st0" width="54.6" height="3.4"/>
		</g>
		<g>
			
				<rect x="154.5" y="34.4" transform="matrix(0.993 -0.1182 0.1182 0.993 -2.9926 21.743)" class="st0" width="54.6" height="3.4"/>
		</g>
		<g>
			
				<rect x="158.3" y="43.9" transform="matrix(0.993 -0.1179 0.1179 0.993 -4.0794 22.1998)" class="st0" width="54.6" height="3.4"/>
		</g>
		<path class="st0" d="M134.7,80.5l1,3.3c0.4-0.1,39-12,71.8-13.9c1.5-1.3,3.1-2.5,4.6-3.7C177.9,67.2,135.1,80.4,134.7,80.5z"/>
		<path class="st0" d="M138.8,91.9l1,3.3c0.1,0,3.9-1.2,10-2.8l-1.5-3.2C142.5,90.7,139,91.8,138.8,91.9z"/>
		<path class="st0" d="M193.1,83.2c1.3-1.4,2.7-2.7,4-4c-16.6,2.1-33,5.9-44.2,8.8l3.4,2.7C166.3,88.1,179.5,85.2,193.1,83.2z"/>
		<path class="st0" d="M224.4,92.3v-3.4c-3.4,0-6.8,0.1-10.4,0.4c-0.9,1.2-1.9,2.4-2.8,3.7C215.7,92.6,220.2,92.3,224.4,92.3z"/>
		<path class="st0" d="M143,103.2l1,3.3c0.1,0,4.4-1.3,11.2-3.1l-1.5-3.2C147.2,101.9,143.1,103.2,143,103.2z"/>
		<path class="st0" d="M167.9,99.6c0.2,0.2,0.4,0.3,0.6,0.5c3.7-0.9,7.8-1.7,12-2.6c1.2-1.4,2.3-2.8,3.5-4.2
			c-6.8,1.3-13.2,2.7-18.9,4L167.9,99.6z"/>
		<path class="st0" d="M147.2,114.6l1,3.3c0.1,0,4.9-1.5,12.3-3.4l-1.5-3.2C151.8,113.1,147.3,114.5,147.2,114.6z"/>
		<path class="st0" d="M228.6,103.7v-3.4c-7.6,0-15.7,0.7-23.7,1.7c-0.9,1.3-1.7,2.5-2.5,3.8C211.2,104.5,220.2,103.7,228.6,103.7z"
			/>
		<path class="st0" d="M232.7,115v-3.4c-11.6,0-24.4,1.6-36.4,3.7c-0.8,1.3-1.5,2.6-2.3,3.9C206.7,116.8,220.5,115,232.7,115z"/>
		<path class="st0" d="M151.3,125.9l1,3.3c0.2,0,5.3-1.6,13.4-3.7l-1.5-3.2C156.5,124.3,151.5,125.9,151.3,125.9z"/>
		<path class="st0" d="M236.9,126.4V123c-15.5,0-33.2,2.8-48.2,5.9c-0.7,1.3-1.4,2.6-2.1,4C202,129.5,220.7,126.4,236.9,126.4z"/>
		<path class="st0" d="M155.5,137.3l1,3.3c0.2,0,5.8-1.8,14.6-4l-1.5-3.2C161.1,135.6,155.7,137.2,155.5,137.3z"/>
		<path class="st0" d="M251.1,51.4c0.4-0.2,2-1,2-1l-1.9,0.3c-8.2,1.5-15.7,4.6-22.8,8.7c-20.5,12-36.7,28.7-51,47.4
			c-2.1,2.7-3.2,2.4-5.4,0.5c-2-1.8-4.1-3.5-6.2-5.1l-11.6-9c7.8,16.3,15.6,32.5,23.7,49.3c0.6-1,1-1.5,1.2-2
			c9.6-20.2,20.9-39.3,34.9-56.7C224.3,70.9,235.9,58.7,251.1,51.4z"/>
	</g>
	<g>
		<path class="st0" d="M314.9,74.3l-6.8-0.3c-3.1,0-5.7,0.7-7.8,2c-2.1,1.3-3.7,3.2-4.8,5.6v49.2h-15.9V60h14.5l1,10.3
			c1.8-3.6,4.1-6.5,6.9-8.5s6.1-3.1,9.7-3.1c1,0,1.9,0.1,2.7,0.2c0.8,0.2,1.6,0.3,2.3,0.6L314.9,74.3z"/>
		<path class="st0" d="M355.5,132.1c-10.3,0-18.4-3.3-24.3-9.8c-5.8-6.5-8.7-15-8.7-25.4v-2.6c0-10.4,2.9-18.9,8.7-25.7
			c5.8-6.7,13.3-10.1,22.5-10c9.5,0,16.7,2.9,21.6,8.8c4.9,5.9,7.3,13.7,7.3,23.5v8.6h-43.8l-0.1,0.3c0.2,5.8,1.7,10.5,4.6,14.1
			c2.9,3.6,7.2,5.4,13,5.4c4.3,0,8.1-0.5,11.2-1.6c3.2-1,6.1-2.6,8.8-4.5l5.2,10.4c-2.7,2.4-6.3,4.3-10.7,6
			C366.4,131.3,361.3,132.1,355.5,132.1z M353.8,71.4c-4.1,0-7.5,1.5-9.9,4.5c-2.5,3-4,6.9-4.6,11.7l0.1,0.3h27.7v-1.2
			c0-4.5-1.1-8.2-3.2-11C361.7,72.8,358.4,71.4,353.8,71.4z"/>
		<path class="st0" d="M435.4,111.4c0-2.4-1-4.5-3.1-6.1s-6-3-11.7-4.3c-8.3-1.7-14.7-4.2-19.1-7.5c-4.4-3.3-6.6-7.8-6.6-13.4
			c0-5.9,2.5-11,7.5-15.2s11.6-6.3,19.8-6.3c8.5,0,15.3,2.2,20.5,6.5s7.6,9.6,7.4,15.7l-0.1,0.4h-15.3c0-2.9-1.1-5.4-3.4-7.5
			c-2.3-2.1-5.3-3.2-9.1-3.2s-6.8,0.9-8.8,2.6s-3,3.9-3,6.4c0,2.4,0.9,4.3,2.8,5.8c1.9,1.4,5.7,2.7,11.6,3.9
			c8.7,1.7,15.2,4.3,19.6,7.7c4.4,3.4,6.6,7.9,6.6,13.6c0,6.4-2.6,11.6-7.9,15.6c-5.3,4-12.2,6.1-20.8,6.1c-9.2,0-16.5-2.4-21.8-7.1
			c-5.3-4.7-7.9-10.1-7.6-16.2l0.1-0.4h14.8c0.2,4.1,1.7,7.1,4.5,9c2.8,1.9,6.2,2.8,10.2,2.8c4.1,0,7.2-0.8,9.5-2.4
			C434.3,116.2,435.4,114,435.4,111.4z"/>
		<path class="st0" d="M509.5,120.3c-2.2,3.8-5,6.7-8.4,8.8s-7.4,3.1-11.9,3.1c-7.6,0-13.5-2.5-17.8-7.5s-6.4-12.8-6.4-23.3V60h15.8
			v41.6c0,6.8,1,11.4,2.9,13.9c2,2.5,5,3.8,9.2,3.8c3.8,0,7.1-0.7,9.7-2.1c2.6-1.4,4.6-3.4,6.1-6V60h15.9v70.8h-13.7L509.5,120.3z"
			/>
		<path class="st0" d="M555.8,59.9l0.9,9.2c2.3-3.4,5.2-6,8.7-7.8s7.5-2.7,12.1-2.7s8.6,1,11.9,3.1s5.8,5.2,7.5,9.4
			c2.2-3.9,5.1-7,8.6-9.2c3.6-2.2,7.8-3.3,12.6-3.3c7.1,0,12.7,2.5,16.9,7.4c4.1,5,6.2,12.4,6.2,22.5v42.2h-15.9V88.4
			c0-6.2-1-10.6-3.1-13.1s-5.2-3.8-9.3-3.8c-3.4,0-6.3,0.9-8.6,2.7c-2.4,1.8-4.1,4.3-5.1,7.4c0,0.7,0,1.2,0.1,1.7
			c0,0.5,0.1,0.9,0.1,1.4v45.9h-15.9V88.3c0-6-1.1-10.3-3.2-12.9s-5.2-3.9-9.3-3.9c-3.2,0-6,0.6-8.2,1.9c-2.2,1.2-4,3-5.3,5.3v52
			h-15.9V59.9L555.8,59.9L555.8,59.9z"/>
		<path class="st0" d="M687.9,132.1c-10.3,0-18.4-3.3-24.3-9.8c-5.8-6.5-8.7-15-8.7-25.4v-2.6c0-10.4,2.9-18.9,8.7-25.7
			c5.8-6.7,13.3-10.1,22.5-10c9.5,0,16.7,2.9,21.6,8.8c4.9,5.9,7.3,13.7,7.3,23.5v8.6h-43.8l-0.1,0.3c0.2,5.8,1.7,10.5,4.6,14.1
			c2.9,3.6,7.2,5.4,13,5.4c4.3,0,8.1-0.5,11.2-1.6c3.2-1,6.1-2.6,8.8-4.5l5.2,10.4c-2.7,2.4-6.3,4.3-10.7,6
			C698.8,131.3,693.7,132.1,687.9,132.1z M686.2,71.4c-4.1,0-7.5,1.5-9.9,4.5c-2.5,3-4,6.9-4.6,11.7l0.1,0.3h27.6v-1.2
			c0-4.5-1.1-8.2-3.2-11C694.1,72.8,690.8,71.4,686.2,71.4z"/>
		<path class="st0" d="M745.5,130.7h-15.8v-15.3h15.8V130.7z"/>
		<path class="st0" d="M782.4,130.7h-15.9V28.6h15.9V130.7z"/>
		<path class="st0" d="M822,99.8h-5.9v31h-15.8V28.6h15.8V87h5.4l19.2-27.1h18.7l-24.3,32.6l27,38.2h-18.5L822,99.8z"/>
	</g>
</g>
</svg>
