<svg id="Layer_1" data-name="Layer 1" xmlns="http://www.w3.org/2000/svg" viewBox="0 0 1366 768"><defs><style>.cls-1{fill:#00766b;}.cls-2,.cls-3{fill:#fff;}.cls-3{font-size:98.87px;font-family:Poppins-ExtraBold, Poppins;font-weight:800;}</style></defs><title>logo-svg</title><rect class="cls-1" x="332.42" y="278.09" width="148.24" height="212.81" transform="translate(82.06 -71.38) rotate(11.15)"/><path class="cls-2" d="M460.8,506.39,310.08,476.68l42.21-214.07L503,292.32ZM316.4,472.44l140.16,27.63,40.13-203.51L356.53,268.93Z"/><path class="cls-2" d="M385.37,325.62l-31.64-6.24,8.44-42.79,31.64,6.23Zm-28.48-8.36,26.36,5.2,7.4-37.52-26.36-5.19Z"/><circle class="cls-2" cx="374.74" cy="296.19" r="6.82"/><path class="cls-2" d="M369.37,305.43h4.24a6.15,6.15,0,0,1,6.15,6.15v8.35a0,0,0,0,1,0,0H363.22a0,0,0,0,1,0,0v-8.35A6.15,6.15,0,0,1,369.37,305.43Z" transform="translate(67.5 -65.96) rotate(11.15)"/><rect class="cls-2" x="407.66" y="296.39" width="58.66" height="9.55" rx="3.42" transform="translate(66.51 -78.85) rotate(11.15)"/><rect class="cls-2" x="354.62" y="346.53" width="39.22" height="3.52" rx="1.31" transform="translate(74.44 -65.81) rotate(11.15)"/><rect class="cls-2" x="344.35" y="398.62" width="39.22" height="3.52" rx="1.31" transform="translate(84.33 -62.84) rotate(11.15)"/><rect class="cls-2" x="334.65" y="447.8" width="39.22" height="3.52" rx="1.31" transform="translate(93.66 -60.04) rotate(11.15)"/><rect class="cls-2" x="412.51" y="315.13" width="45.7" height="2.73" transform="translate(69.45 -78.24) rotate(11.15)"/><rect class="cls-2" x="411.25" y="320.85" width="31.38" height="2.73" transform="translate(70.4 -76.5) rotate(11.15)"/><rect class="cls-2" x="409.63" y="330.2" width="42.29" height="1.53" transform="translate(72.16 -77.08) rotate(11.15)"/><rect class="cls-2" x="408.05" y="336.31" width="15.69" height="2.73" transform="translate(73.18 -74.07) rotate(11.15)"/><rect class="cls-2" x="428.64" y="341.92" width="31.38" height="2.73" transform="translate(74.8 -79.47) rotate(11.15)"/><rect class="cls-2" x="355.79" y="358.08" width="20.12" height="3.07" transform="translate(76.48 -63.98) rotate(11.15)"/><rect class="cls-2" x="380.26" y="369.5" width="86.97" height="3.07" transform="translate(79.78 -74.96) rotate(11.15)"/><rect class="cls-2" x="354.08" y="366.78" width="20.12" height="3.07" transform="translate(78.13 -63.48) rotate(11.15)"/><rect class="cls-2" x="378.54" y="378.2" width="86.97" height="3.07" transform="translate(81.43 -74.47) rotate(11.15)"/><rect class="cls-2" x="352.36" y="375.48" width="20.12" height="3.07" transform="translate(79.78 -62.99) rotate(11.15)"/><rect class="cls-2" x="376.83" y="386.9" width="86.97" height="3.07" transform="translate(83.08 -73.97) rotate(11.15)"/><rect class="cls-2" x="350.65" y="384.18" width="20.12" height="3.07" transform="translate(81.43 -62.49) rotate(11.15)"/><rect class="cls-2" x="375.11" y="395.6" width="86.97" height="3.07" transform="translate(84.73 -73.47) rotate(11.15)"/><rect class="cls-2" x="345.32" y="412.82" width="49.79" height="2.73" transform="translate(87.12 -63.79) rotate(11.15)"/><rect class="cls-2" x="343.47" y="422.19" width="49.79" height="2.73" transform="translate(88.89 -63.26) rotate(11.15)"/><rect class="cls-2" x="341.63" y="431.56" width="49.79" height="2.73" transform="translate(90.67 -62.72) rotate(11.15)"/><rect class="cls-2" x="339.78" y="440.93" width="49.79" height="2.73" transform="translate(92.45 -62.19) rotate(11.15)"/><rect class="cls-2" x="389.11" y="415.25" width="2.73" height="111.52" transform="translate(-147.18 762.99) rotate(-78.85)"/><rect class="cls-2" x="387.46" y="423.62" width="2.73" height="111.52" transform="translate(-156.72 768.12) rotate(-78.85)"/><rect class="cls-2" x="406.89" y="424.96" width="49.79" height="2.73" transform="translate(90.63 -75.47) rotate(11.15)"/><rect class="cls-2" x="405.04" y="434.33" width="49.79" height="2.73" transform="translate(92.4 -74.94) rotate(11.15)"/><rect class="cls-2" x="403.19" y="443.7" width="49.79" height="2.73" transform="translate(94.18 -74.41) rotate(11.15)"/><rect class="cls-2" x="401.35" y="453.07" width="49.79" height="2.73" transform="translate(95.96 -73.87) rotate(11.15)"/><rect class="cls-1" x="318.63" y="275.74" width="148.24" height="212.81" transform="matrix(0.99, 0.13, -0.13, 0.99, 52.29, -47.25)"/><path class="cls-2" d="M454.92,500.2,302.57,480.49l28-216.39,152.35,19.71ZM308.6,475.84l141.68,18.34L476.9,288.46,335.22,270.13Z"/><path class="cls-2" d="M367.74,324.79l-32-4.14,5.6-43.25,32,4.13Zm-29-6.46,26.65,3.45,4.91-37.92-26.65-3.45Z"/><circle class="cls-2" cx="355.19" cy="296.13" r="6.82"/><path class="cls-2" d="M350.91,305.54h4.24a6.15,6.15,0,0,1,6.15,6.15V320a0,0,0,0,1,0,0H344.77a0,0,0,0,1,0,0v-8.35A6.15,6.15,0,0,1,350.91,305.54Z" transform="matrix(0.99, 0.13, -0.13, 0.99, 43.06, -42.72)"/><rect class="cls-2" x="388.31" y="292.22" width="58.66" height="9.55" rx="3.42" transform="translate(41.57 -51.15) rotate(7.37)"/><rect class="cls-2" x="338.51" y="346.39" width="39.22" height="3.52" rx="1.31" transform="translate(47.64 -43.08) rotate(7.37)"/><rect class="cls-2" x="331.69" y="399.04" width="39.22" height="3.52" rx="1.31" transform="matrix(0.99, 0.13, -0.13, 0.99, 54.35, -41.77)"/><rect class="cls-2" x="325.26" y="448.76" width="39.22" height="3.52" rx="1.31" transform="translate(60.67 -40.54) rotate(7.37)"/><rect class="cls-2" x="394.17" y="311.02" width="45.7" height="2.73" transform="matrix(0.99, 0.13, -0.13, 0.99, 43.54, -50.94)"/><rect class="cls-2" x="393.3" y="317.29" width="31.38" height="2.73" transform="translate(44.28 -49.86) rotate(7.37)"/><rect class="cls-2" x="392.25" y="326.37" width="42.29" height="1.53" transform="translate(45.4 -50.35) rotate(7.37)"/><rect class="cls-2" x="391.15" y="333.45" width="15.69" height="2.73" transform="translate(46.27 -48.44) rotate(7.37)"/><rect class="cls-2" x="412.05" y="337.17" width="31.38" height="2.73" transform="translate(46.99 -52.1) rotate(7.37)"/><rect class="cls-2" x="340.45" y="358.47" width="20.12" height="3.07" transform="translate(49.1 -42.01) rotate(7.37)"/><rect class="cls-2" x="365.54" y="366.04" width="86.97" height="3.07" transform="translate(50.56 -49.46) rotate(7.37)"/><rect class="cls-2" x="339.31" y="367.26" width="20.12" height="3.07" transform="translate(50.22 -41.79) rotate(7.37)"/><rect class="cls-2" x="364.4" y="374.84" width="86.97" height="3.07" transform="matrix(0.99, 0.13, -0.13, 0.99, 51.68, -49.24)"/><rect class="cls-2" x="338.17" y="376.06" width="20.12" height="3.07" transform="translate(51.34 -41.57) rotate(7.37)"/><rect class="cls-2" x="363.26" y="383.63" width="86.97" height="3.07" transform="translate(52.8 -49.02) rotate(7.37)"/><rect class="cls-2" x="337.03" y="384.85" width="20.12" height="3.07" transform="translate(52.46 -41.35) rotate(7.37)"/><rect class="cls-2" x="362.12" y="392.42" width="86.97" height="3.07" transform="translate(53.92 -48.8) rotate(7.37)"/><rect class="cls-2" x="333.56" y="412.8" width="49.79" height="2.73" transform="matrix(0.99, 0.13, -0.13, 0.99, 56.12, -42.58)"/><rect class="cls-2" x="332.34" y="422.27" width="49.79" height="2.73" transform="matrix(0.99, 0.13, -0.13, 0.99, 57.33, -42.35)"/><rect class="cls-2" x="331.11" y="431.74" width="49.79" height="2.73" transform="translate(58.53 -42.11) rotate(7.37)"/><rect class="cls-2" x="329.89" y="441.21" width="49.79" height="2.73" transform="translate(59.74 -41.87) rotate(7.37)"/><rect class="cls-2" x="381.05" y="413.78" width="2.73" height="111.52" transform="translate(-132.32 788.53) rotate(-82.63)"/><rect class="cls-2" x="379.96" y="422.23" width="2.73" height="111.52" transform="translate(-141.66 794.81) rotate(-82.63)"/><rect class="cls-2" x="395.8" y="420.85" width="49.79" height="2.73" transform="translate(57.67 -50.5) rotate(7.37)"/><rect class="cls-2" x="394.57" y="430.32" width="49.79" height="2.73" transform="translate(58.87 -50.27) rotate(7.37)"/><rect class="cls-2" x="393.34" y="439.79" width="49.79" height="2.73" transform="translate(60.08 -50.03) rotate(7.37)"/><rect class="cls-2" x="392.12" y="449.26" width="49.79" height="2.73" transform="matrix(0.99, 0.13, -0.13, 0.99, 61.28, -49.79)"/><rect class="cls-1" x="287.46" y="276.09" width="148.24" height="212.81"/><path class="cls-2" d="M438.39,491.59H284.77V273.39H438.39Zm-148.24-5.38H433V278.78H290.15Z"/><path class="cls-2" d="M329.42,328.81H297.17V285.2h32.25Zm-29.56-2.69h26.87V287.89H299.86Z"/><circle class="cls-2" cx="313.3" cy="302" r="6.82"/><path class="cls-2" d="M311.17,311.55h4.24a6.15,6.15,0,0,1,6.15,6.15V326a0,0,0,0,1,0,0H305a0,0,0,0,1,0,0V317.7A6.15,6.15,0,0,1,311.17,311.55Z"/><rect class="cls-2" x="346.01" y="290.07" width="58.66" height="9.55" rx="3.42"/><rect class="cls-2" x="303.26" y="351.46" width="39.22" height="3.52" rx="1.31"/><rect class="cls-2" x="303.26" y="404.55" width="39.22" height="3.52" rx="1.31"/><rect class="cls-2" x="303.26" y="454.68" width="39.22" height="3.52" rx="1.31"/><rect class="cls-2" x="353.85" y="308.83" width="45.7" height="2.73"/><rect class="cls-2" x="353.85" y="316.07" width="31.38" height="2.73"/><rect class="cls-2" x="353.85" y="324.51" width="42.29" height="1.53"/><rect class="cls-2" x="353.85" y="333.38" width="15.69" height="2.73"/><rect class="cls-2" x="375" y="333.38" width="31.38" height="2.73"/><rect class="cls-2" x="306.79" y="364.42" width="20.12" height="3.07"/><rect class="cls-2" x="332.37" y="364.42" width="86.97" height="3.07"/><rect class="cls-2" x="306.79" y="373.28" width="20.12" height="3.07"/><rect class="cls-2" x="332.37" y="373.28" width="86.97" height="3.07"/><rect class="cls-2" x="306.79" y="382.15" width="20.12" height="3.07"/><rect class="cls-2" x="332.37" y="382.15" width="86.97" height="3.07"/><rect class="cls-2" x="306.79" y="391.02" width="20.12" height="3.07"/><rect class="cls-2" x="332.37" y="391.02" width="86.97" height="3.07"/><rect class="cls-2" x="306.79" y="417.28" width="49.79" height="2.73"/><rect class="cls-2" x="306.79" y="426.83" width="49.79" height="2.73"/><rect class="cls-2" x="306.79" y="436.38" width="49.79" height="2.73"/><rect class="cls-2" x="306.79" y="445.93" width="49.79" height="2.73"/><rect class="cls-2" x="306.79" y="469.12" width="111.52" height="2.73"/><rect class="cls-2" x="306.79" y="477.64" width="111.52" height="2.73"/><rect class="cls-2" x="369.54" y="417.28" width="49.79" height="2.73"/><rect class="cls-2" x="369.54" y="426.83" width="49.79" height="2.73"/><rect class="cls-2" x="369.54" y="436.38" width="49.79" height="2.73"/><rect class="cls-2" x="369.54" y="445.93" width="49.79" height="2.73"/><path class="cls-2" d="M526.68,464.84a18.29,18.29,0,0,1-4.54,3,11.76,11.76,0,0,1-4.66.94,8.22,8.22,0,0,1-5.94-2.17,7.39,7.39,0,0,1-2.26-5.55,7.57,7.57,0,0,1,1-3.95,8.07,8.07,0,0,1,2.69-2.76,11.92,11.92,0,0,1,4.11-1.49,45.15,45.15,0,0,1,5.8-.47,20.58,20.58,0,0,0,6.13-.91,11.73,11.73,0,0,0,.53-3.08,3,3,0,0,0-1.16-2.48,7.24,7.24,0,0,0-4.61-1.25,8,8,0,0,0-4.67,1.26,7.15,7.15,0,0,0-2.64,3.6l-4.59-.4a12,12,0,0,1,4.45-6.07,13.22,13.22,0,0,1,7.68-2.1,12,12,0,0,1,7.82,2.35,5.55,5.55,0,0,1,2.2,4.56,22.85,22.85,0,0,1-.62,4.94l-1.48,6.62a24.59,24.59,0,0,0-.7,5.14,17,17,0,0,0,.55,3.6H527.2A16.69,16.69,0,0,1,526.68,464.84Zm1.67-10.18a11.28,11.28,0,0,1-2,.58c-.72.13-1.94.27-3.64.42a28.24,28.24,0,0,0-5.59.89,4.65,4.65,0,0,0-2.46,1.72,4.45,4.45,0,0,0-.83,2.61,4.09,4.09,0,0,0,1.32,3.13,5.3,5.3,0,0,0,3.75,1.23,8.62,8.62,0,0,0,4.33-1.19,8.74,8.74,0,0,0,3.29-3.32A19.39,19.39,0,0,0,528.35,454.66Z"/><path class="cls-2" d="M556.6,468.14l-2.78-26.61h4.36l1.2,12,.48,6.72q0,.75.15,3c.5-1.7.92-3,1.28-3.92s.91-2.21,1.67-3.9l6.35-13.88h4.93l.88,13.31c.13,2,.22,4.72.25,8.09q1.25-3.36,4.09-9.32l5.71-12.08h4.53l-13,26.61H572l-1-15.61c-.06-1-.11-2.86-.15-5.66q-1,2.69-2.43,5.79l-7,15.48Z"/><path class="cls-2" d="M606.55,464.84a18.29,18.29,0,0,1-4.54,3,11.76,11.76,0,0,1-4.66.94,8.22,8.22,0,0,1-5.94-2.17,7.39,7.39,0,0,1-2.26-5.55,7.57,7.57,0,0,1,1-3.95,8.07,8.07,0,0,1,2.69-2.76,11.92,11.92,0,0,1,4.11-1.49,45.15,45.15,0,0,1,5.8-.47,20.58,20.58,0,0,0,6.13-.91,11.73,11.73,0,0,0,.53-3.08,3,3,0,0,0-1.15-2.48,7.29,7.29,0,0,0-4.62-1.25A8,8,0,0,0,599,445.9a7.15,7.15,0,0,0-2.64,3.6l-4.59-.4a12,12,0,0,1,4.45-6.07,13.22,13.22,0,0,1,7.68-2.1,12,12,0,0,1,7.82,2.35,5.55,5.55,0,0,1,2.2,4.56,22.85,22.85,0,0,1-.62,4.94l-1.48,6.62a24.59,24.59,0,0,0-.7,5.14,17,17,0,0,0,.55,3.6h-4.59A16.69,16.69,0,0,1,606.55,464.84Zm1.68-10.18a11.63,11.63,0,0,1-2.05.58c-.72.13-1.94.27-3.64.42a28.24,28.24,0,0,0-5.59.89,4.65,4.65,0,0,0-2.46,1.72,4.44,4.44,0,0,0-.82,2.61A4.08,4.08,0,0,0,595,464a5.3,5.3,0,0,0,3.75,1.23,8.62,8.62,0,0,0,4.33-1.19,8.74,8.74,0,0,0,3.29-3.32A19.63,19.63,0,0,0,608.23,454.66Z"/><path class="cls-2" d="M615.44,478.42l.28-4.26a9.75,9.75,0,0,0,2.73.4,3.66,3.66,0,0,0,2.23-.63,10.26,10.26,0,0,0,2.41-3.1l1.45-2.61-4.44-26.69h4.46l2,13.46q.6,4,1,8l11.9-21.43h4.74l-17,30.15c-1.64,2.94-3.09,4.88-4.36,5.84a7.13,7.13,0,0,1-4.39,1.43A9.28,9.28,0,0,1,615.44,478.42Z"/><path class="cls-2" d="M667.67,464.46l-.75,3.71a12.69,12.69,0,0,1-3.16.43,6.59,6.59,0,0,1-4.31-1.33,3.37,3.37,0,0,1-1.2-2.73,26.57,26.57,0,0,1,.65-4L662.13,445h-3.58l.72-3.51h3.59l1.38-6.54,5.18-3.13-2,9.67h4.47L671.1,445h-4.43l-3.09,14.71a27.71,27.71,0,0,0-.57,3.36,1.56,1.56,0,0,0,.46,1.22,2.19,2.19,0,0,0,1.52.43A10.93,10.93,0,0,0,667.67,464.46Z"/><path class="cls-2" d="M672.13,458a18.59,18.59,0,0,1,4.59-12.9,12.69,12.69,0,0,1,9.92-4.21,10.37,10.37,0,0,1,7.76,3,11.1,11.1,0,0,1,2.94,8.11,19.92,19.92,0,0,1-1.85,8.54,13.79,13.79,0,0,1-5.28,6.05,13.56,13.56,0,0,1-7.2,2.11,12.07,12.07,0,0,1-5.65-1.33,9.17,9.17,0,0,1-3.89-3.76A11.48,11.48,0,0,1,672.13,458Zm4.54-.45a8.09,8.09,0,0,0,1.8,5.7,6,6,0,0,0,4.59,1.95,7.53,7.53,0,0,0,2.88-.59,8.37,8.37,0,0,0,2.66-1.79,12.63,12.63,0,0,0,2.09-2.75,18,18,0,0,0,2.17-8.08,8,8,0,0,0-1.82-5.6,5.92,5.92,0,0,0-4.57-2,7.6,7.6,0,0,0-3.89,1,10.53,10.53,0,0,0-3.17,3,13.28,13.28,0,0,0-2.08,4.55A19,19,0,0,0,676.67,457.59Z"/><path class="cls-2" d="M714.56,459.05l4.54-.28a8.29,8.29,0,0,0,.6,3.33,4.75,4.75,0,0,0,2.22,2.26,7.81,7.81,0,0,0,3.77.88A7.1,7.1,0,0,0,730.2,464a3.54,3.54,0,0,0,1.5-2.83,3.39,3.39,0,0,0-.9-2.23,14.45,14.45,0,0,0-4.52-2.59,43,43,0,0,1-4.6-2.17,7.29,7.29,0,0,1-2.53-2.42,6,6,0,0,1-.86-3.19,7.06,7.06,0,0,1,2.51-5.42,10.14,10.14,0,0,1,7-2.25q5,0,7.63,2.32a8.08,8.08,0,0,1,2.72,6.1l-4.44.3a5.12,5.12,0,0,0-1.7-3.81,6.65,6.65,0,0,0-4.54-1.4,5.64,5.64,0,0,0-3.66,1.07,3,3,0,0,0-1.3,2.33,2.8,2.8,0,0,0,1.13,2.21,18.91,18.91,0,0,0,3.88,2c3.48,1.51,5.67,2.69,6.57,3.56a6.81,6.81,0,0,1,2.15,5.07,7.13,7.13,0,0,1-1.21,3.88,8.39,8.39,0,0,1-3.71,3.05,14,14,0,0,1-5.88,1.14,13.25,13.25,0,0,1-7.84-2.28Q714.38,464.17,714.56,459.05Z"/><path class="cls-2" d="M758,463.33q-4.79,5.42-9.8,5.42a7,7,0,0,1-5-1.77,5.69,5.69,0,0,1-1.89-4.32,32.78,32.78,0,0,1,.85-5.77l3.21-15.36h4.54l-3.56,17a17.18,17.18,0,0,0-.45,3.3,3,3,0,0,0,.91,2.35,3.87,3.87,0,0,0,2.7.84,8.1,8.1,0,0,0,3.72-.93,9.86,9.86,0,0,0,3.13-2.51,12.91,12.91,0,0,0,2.14-3.73,32.18,32.18,0,0,0,1.28-4.84l2.41-11.5h4.53l-5.56,26.61H757Z"/><path class="cls-2" d="M786.71,458.45l4.54.47a15.29,15.29,0,0,1-4.85,7.41,11.47,11.47,0,0,1-7.16,2.42,9.32,9.32,0,0,1-7-2.81q-2.69-2.81-2.69-7.85a22.46,22.46,0,0,1,1.73-8.57,13.83,13.83,0,0,1,5-6.4,12.75,12.75,0,0,1,7.35-2.19,9.37,9.37,0,0,1,6.8,2.42,8.51,8.51,0,0,1,2.5,6.4l-4.46.3a5.42,5.42,0,0,0-1.47-4,5.15,5.15,0,0,0-3.79-1.43,7.05,7.05,0,0,0-4.74,1.73,11.24,11.24,0,0,0-3.14,5.25,21.71,21.71,0,0,0-1.14,6.78,7.53,7.53,0,0,0,1.5,5.11,4.75,4.75,0,0,0,3.71,1.71,6.53,6.53,0,0,0,4.22-1.68A11,11,0,0,0,786.71,458.45Z"/><path class="cls-2" d="M812.37,458.45l4.54.47a15.22,15.22,0,0,1-4.85,7.41,11.44,11.44,0,0,1-7.15,2.42,9.29,9.29,0,0,1-7-2.81q-2.7-2.81-2.7-7.85a22.46,22.46,0,0,1,1.73-8.57,13.83,13.83,0,0,1,5-6.4,12.78,12.78,0,0,1,7.36-2.19,9.34,9.34,0,0,1,6.79,2.42,8.47,8.47,0,0,1,2.5,6.4l-4.46.3a5.37,5.37,0,0,0-1.46-4,5.18,5.18,0,0,0-3.8-1.43,7.05,7.05,0,0,0-4.74,1.73,11.41,11.41,0,0,0-3.14,5.25,22,22,0,0,0-1.14,6.78,7.53,7.53,0,0,0,1.5,5.11,4.75,4.75,0,0,0,3.71,1.71,6.51,6.51,0,0,0,4.22-1.68A11,11,0,0,0,812.37,458.45Z"/><path class="cls-2" d="M839.21,459.1l4.41.45a13.3,13.3,0,0,1-4.37,6.24,12.07,12.07,0,0,1-8.16,3,11,11,0,0,1-5.42-1.37,8.92,8.92,0,0,1-3.76-4,13.23,13.23,0,0,1-1.29-5.94,18.86,18.86,0,0,1,2-8.46,14.37,14.37,0,0,1,5.22-6.09,12.89,12.89,0,0,1,6.94-2,10.07,10.07,0,0,1,7.61,2.95,11.16,11.16,0,0,1,2.84,8.07,23.13,23.13,0,0,1-.35,4H825.3a12.59,12.59,0,0,0-.1,1.41,8.44,8.44,0,0,0,1.72,5.7,5.38,5.38,0,0,0,4.2,2,8.08,8.08,0,0,0,4.58-1.53A9.88,9.88,0,0,0,839.21,459.1ZM826,452.51H841c0-.47,0-.81,0-1a7.37,7.37,0,0,0-1.7-5.22,5.76,5.76,0,0,0-4.39-1.82,8.05,8.05,0,0,0-5.3,2A12.07,12.07,0,0,0,826,452.51Z"/><path class="cls-2" d="M848.64,459.05l4.53-.28a8.29,8.29,0,0,0,.6,3.33,4.79,4.79,0,0,0,2.22,2.26,7.86,7.86,0,0,0,3.77.88,7.06,7.06,0,0,0,4.51-1.21,3.52,3.52,0,0,0,1.51-2.83,3.39,3.39,0,0,0-.9-2.23,14.41,14.41,0,0,0-4.53-2.59,44,44,0,0,1-4.6-2.17,7.37,7.37,0,0,1-2.53-2.42,6.06,6.06,0,0,1-.85-3.19,7.06,7.06,0,0,1,2.51-5.42,10.13,10.13,0,0,1,7-2.25c3.35,0,5.89.77,7.64,2.32a8.08,8.08,0,0,1,2.72,6.1l-4.44.3a5.13,5.13,0,0,0-1.71-3.81,6.62,6.62,0,0,0-4.53-1.4,5.64,5.64,0,0,0-3.66,1.07,3,3,0,0,0-1.3,2.33,2.82,2.82,0,0,0,1.12,2.21,19.4,19.4,0,0,0,3.89,2c3.47,1.51,5.66,2.69,6.56,3.56a6.78,6.78,0,0,1,2.16,5.07,7.21,7.21,0,0,1-1.21,3.88,8.44,8.44,0,0,1-3.71,3.05,14.08,14.08,0,0,1-5.88,1.14,13.28,13.28,0,0,1-7.85-2.28Q848.46,464.17,848.64,459.05Z"/><path class="cls-2" d="M874.3,459.05l4.53-.28a8.29,8.29,0,0,0,.61,3.33,4.75,4.75,0,0,0,2.22,2.26,7.81,7.81,0,0,0,3.77.88,7.1,7.1,0,0,0,4.51-1.21,3.54,3.54,0,0,0,1.5-2.83,3.39,3.39,0,0,0-.9-2.23,14.45,14.45,0,0,0-4.52-2.59,42,42,0,0,1-4.6-2.17,7.29,7.29,0,0,1-2.53-2.42,6,6,0,0,1-.86-3.19,7.06,7.06,0,0,1,2.51-5.42,10.14,10.14,0,0,1,7-2.25q5,0,7.63,2.32a8.08,8.08,0,0,1,2.72,6.1l-4.44.3a5.12,5.12,0,0,0-1.7-3.81,6.65,6.65,0,0,0-4.54-1.4,5.64,5.64,0,0,0-3.66,1.07,3,3,0,0,0-1.3,2.33,2.8,2.8,0,0,0,1.13,2.21,18.91,18.91,0,0,0,3.88,2c3.48,1.51,5.67,2.69,6.57,3.56a6.81,6.81,0,0,1,2.15,5.07,7.13,7.13,0,0,1-1.21,3.88,8.39,8.39,0,0,1-3.71,3.05,14,14,0,0,1-5.88,1.14,13.25,13.25,0,0,1-7.84-2.28Q874.12,464.17,874.3,459.05Z"/><text class="cls-3" transform="translate(509.28 400.8)">resume.lk</text></svg>