<svg xmlns="http://www.w3.org/2000/svg" viewBox="0 0 21.2 19.69"><defs><style>.cls-1{fill:#61abfd;}.cls-2{fill:none;stroke:#2d61bb;stroke-linecap:round;stroke-linejoin:round;stroke-width:0.7px;}.cls-3{fill:#2d61bb;}</style></defs><title>money-bags</title><g id="Layer_2" data-name="Layer 2"><g id="Icons"><polygon class="cls-1" points="17.07 11.46 15.16 8.04 14.22 7.2 12.64 5.84 14.31 1.72 14.17 0.97 11.96 0.41 9.49 0.41 6.99 1.26 8.67 5.78 5.11 9.68 3.85 14.07 5.01 17.03 8.96 18.97 12.13 19.28 14.21 18.53 16.08 16.89 17.35 14.57 17.07 11.46"/><path id="Shape_175" data-name="Shape 175" class="cls-2" d="M10.79,16.06v1"/><path id="Shape_176" data-name="Shape 176" class="cls-2" d="M10.79,8.84v1"/><path id="Shape_171" data-name="Shape 171" class="cls-2" d="M12.64,5.84c2,1.41,4.71,4.81,4.71,7.87S14,19.34,10.6,19.34s-6.75-2.52-6.75-5.63,2.66-6.46,4.7-7.87L7,2.13a.89.89,0,0,1-.07-.73A.85.85,0,0,1,7.42.86a10.17,10.17,0,0,1,6.36,0,.9.9,0,0,1,.49.54.89.89,0,0,1-.07.73Z"/><path id="Shape_173" data-name="Shape 173" class="cls-2" d="M4.1,18.59c-3,0-3.75-3-3.75-5.12A7.49,7.49,0,0,1,3.93,7.34L2.67,5.51a.74.74,0,0,1,.61-1.17H5.6"/><path id="Shape_174" data-name="Shape 174" class="cls-2" d="M8.93,15.18a2.24,2.24,0,0,0,1.86.88c1.14,0,2.06-.7,2.06-1.55S11.93,13,10.79,13s-2.07-.69-2.07-1.55.93-1.54,2.07-1.54a2.19,2.19,0,0,1,1.85.87"/><path id="Shape_177" data-name="Shape 177" class="cls-2" d="M17.1,18.59c3,0,3.75-3,3.75-5.12a7.49,7.49,0,0,0-3.58-6.13l1.26-1.83a.74.74,0,0,0-.61-1.17H15.6"/><polygon class="cls-3" points="8.04 5.84 8.29 5.43 8.5 5.84 8.04 5.84"/></g></g></svg>