<svg xmlns="http://www.w3.org/2000/svg" viewBox="0 0 22.35 22.79"><defs><style>.cls-1{fill:#61abfd;}.cls-2{fill:none;stroke:#2d61bb;stroke-linecap:round;stroke-linejoin:round;stroke-width:0.6px;}</style></defs><title>money</title><g id="Layer_2" data-name="Layer 2"><g id="Icons"><ellipse class="cls-1" cx="6.3" cy="3.3" rx="6" ry="3"/><ellipse class="cls-1" cx="16.05" cy="13.49" rx="6" ry="3"/><g id="Money-Payments-Finance_Money_accounting-coins-stack" data-name="Money-Payments-Finance / Money / accounting-coins-stack"><g id="Group_18" data-name="Group 18"><g id="accounting-coins-stack"><path id="Oval_6" data-name="Oval 6" class="cls-2" d="M6.3,6.3c3.31,0,6-1.34,6-3s-2.69-3-6-3-6,1.34-6,3S3,6.3,6.3,6.3Z"/><path id="Shape_131" data-name="Shape 131" class="cls-2" d="M12.3,6.3c0,1.66-2.69,3-6,3S.3,8,.3,6.3"/><path id="Shape_132" data-name="Shape 132" class="cls-2" d="M12.3,9.3v-6"/><path id="Shape_133" data-name="Shape 133" class="cls-2" d="M.3,3.3v15c0,1.66,2.69,3,6,3a11.29,11.29,0,0,0,2.25-.22"/><path id="Shape_134" data-name="Shape 134" class="cls-2" d="M.3,15.3c0,1.66,2.69,3,6,3a11.29,11.29,0,0,0,2.25-.22"/><path id="Shape_135" data-name="Shape 135" class="cls-2" d="M.3,12.3c0,1.66,2.69,3,6,3a11.29,11.29,0,0,0,2.25-.22"/><path id="Shape_136" data-name="Shape 136" class="cls-2" d="M.3,9.3c0,1.66,2.69,3,6,3a11.29,11.29,0,0,0,2.25-.22"/><path id="Oval_7" data-name="Oval 7" class="cls-2" d="M16.05,16.49c3.31,0,6-1.34,6-3s-2.69-3-6-3-6,1.34-6,3S12.73,16.49,16.05,16.49Z"/><path id="Shape_137" data-name="Shape 137" class="cls-2" d="M10.05,13.49v6c0,1.66,2.68,3,6,3s6-1.34,6-3v-6"/><path id="Shape_138" data-name="Shape 138" class="cls-2" d="M22.05,16.49c0,1.66-2.69,3-6,3s-6-1.34-6-3"/></g></g></g></g></g></svg>