<svg xmlns="http://www.w3.org/2000/svg" viewBox="0 0 123.96 109.3"><defs><style>.cls-1{fill:#61abfd;}</style></defs><title>quotes</title><g id="Layer_2" data-name="Layer 2"><g id="Capa_1" data-name="Capa 1"><path class="cls-1" d="M49.8,21.7a6,6,0,0,0,3-8L47.9,3.4A6,6,0,0,0,40.1.5a68.89,68.89,0,0,0-21.6,14A52.26,52.26,0,0,0,4,37.4C1.4,46,0,57.7,0,72.6v30.7a6,6,0,0,0,6,6H45.3a6,6,0,0,0,6-6V64a6,6,0,0,0-6-6H26.5c.2-10.1,2.6-18.2,7-24.3C37.1,28.8,42.5,24.8,49.8,21.7Z"/><path class="cls-1" d="M120.4,21.7a6,6,0,0,0,3-8L118.5,3.5A6,6,0,0,0,110.7.6,72.45,72.45,0,0,0,89.2,14.5a53.37,53.37,0,0,0-14.6,23q-3.9,12.6-3.9,35.1v30.7a6,6,0,0,0,6,6H116a6,6,0,0,0,6-6V64a6,6,0,0,0-6-6H97.1c.2-10.1,2.6-18.2,7-24.3C107.7,28.8,113.1,24.8,120.4,21.7Z"/></g></g></svg>